<svg version="1.1" id="Layer_1" xmlns="http://www.w3.org/2000/svg" xmlns:xlink="http://www.w3.org/1999/xlink" x="0px" y="0px"
	 width="100%" viewBox="0 0 512 512" enable-background="new 0 0 512 512" xml:space="preserve">
<path fill="none" opacity="1.000000" stroke="none" 
	d="
M513.000000,134.000000 
	C513.000000,260.635864 513.000000,386.771729 513.000000,512.953796 
	C342.405792,512.953796 171.811569,512.953796 1.108677,512.953796 
	C1.108677,342.447510 1.108677,171.894913 1.108677,1.171162 
	C171.666519,1.171162 342.333252,1.171162 513.000000,1.171162 
	C513.000000,45.188389 513.000000,89.344193 513.000000,134.000000 
M359.001892,458.502502 
	C351.336517,454.210297 342.315399,452.269470 339.076050,441.810883 
	C335.750214,431.073029 330.466766,420.941498 325.808167,410.000000 
	C328.079041,410.000000 329.859009,410.000000 331.638977,410.000000 
	C375.633362,410.000000 419.627777,410.029327 463.622040,409.956207 
	C468.207550,409.948578 472.818695,409.541992 477.371765,408.959564 
	C488.608856,407.522095 497.049469,395.968933 497.043640,386.138977 
	C496.975616,270.987091 497.003784,155.835159 496.994507,40.683231 
	C496.993500,28.121716 485.819794,17.005116 473.206818,17.004499 
	C328.725311,16.997448 184.243790,16.998138 39.762287,17.023806 
	C38.145901,17.024094 36.460094,17.150879 34.924202,17.610928 
	C22.399040,21.362619 16.071857,30.365913 16.059219,43.977463 
	C15.954625,156.629608 15.945560,269.281952 16.056709,381.934082 
	C16.074062,399.523224 26.456198,409.899780 44.288498,409.953674 
	C90.115540,410.092224 135.943283,409.997314 181.770752,410.010437 
	C183.490677,410.010925 185.210587,410.165131 186.861618,410.244385 
	C186.861618,411.299866 187.017242,411.857178 186.838821,412.270203 
	C182.596924,422.090240 177.810150,431.713074 174.221130,441.764069 
	C171.694427,448.840118 167.251862,452.894073 160.679810,455.858185 
	C152.539703,459.529449 144.337006,463.335754 136.893707,468.203583 
	C128.981415,473.378204 127.702614,483.824371 134.193710,491.690521 
	C138.295807,496.661560 143.844284,498.001282 149.938171,498.001007 
	C191.099564,497.999115 232.260971,498.000000 273.422363,498.000000 
	C303.918457,498.000000 334.415131,498.101715 364.910339,497.936646 
	C373.805054,497.888519 380.507355,493.716522 382.522888,486.074402 
	C384.589752,478.237915 382.222626,471.734711 374.241455,466.749939 
	C369.567474,463.830719 364.511902,461.522461 359.001892,458.502502 
z"/>
<path fill="color" opacity="1.000000" stroke="none" 
	d="
M359.314941,458.720947 
	C364.511902,461.522461 369.567474,463.830719 374.241455,466.749939 
	C382.222626,471.734711 384.589752,478.237915 382.522888,486.074402 
	C380.507355,493.716522 373.805054,497.888519 364.910339,497.936646 
	C334.415131,498.101715 303.918457,498.000000 273.422363,498.000000 
	C232.260971,498.000000 191.099564,497.999115 149.938171,498.001007 
	C143.844284,498.001282 138.295807,496.661560 134.193710,491.690521 
	C127.702614,483.824371 128.981415,473.378204 136.893707,468.203583 
	C144.337006,463.335754 152.539703,459.529449 160.679810,455.858185 
	C167.251862,452.894073 171.694427,448.840118 174.221130,441.764069 
	C177.810150,431.713074 182.596924,422.090240 186.838821,412.270203 
	C187.017242,411.857178 186.861618,411.299866 186.861618,410.244385 
	C185.210587,410.165131 183.490677,410.010925 181.770752,410.010437 
	C135.943283,409.997314 90.115540,410.092224 44.288498,409.953674 
	C26.456198,409.899780 16.074062,399.523224 16.056709,381.934082 
	C15.945560,269.281952 15.954625,156.629608 16.059219,43.977463 
	C16.071857,30.365913 22.399040,21.362619 34.924202,17.610928 
	C36.460094,17.150879 38.145901,17.024094 39.762287,17.023806 
	C184.243790,16.998138 328.725311,16.997448 473.206818,17.004499 
	C485.819794,17.005116 496.993500,28.121716 496.994507,40.683231 
	C497.003784,155.835159 496.975616,270.987091 497.043640,386.138977 
	C497.049469,395.968933 488.608856,407.522095 477.371765,408.959564 
	C472.818695,409.541992 468.207550,409.948578 463.622040,409.956207 
	C419.627777,410.029327 375.633362,410.000000 331.638977,410.000000 
	C329.859009,410.000000 328.079041,410.000000 325.808167,410.000000 
	C330.466766,420.941498 335.750214,431.073029 339.076050,441.810883 
	C342.315399,452.269470 351.336517,454.210297 359.314941,458.720947 
M370.500000,393.000000 
	C380.166595,393.000000 389.833160,393.000000 399.499756,393.000000 
	C422.666412,392.999969 445.833069,393.018066 468.999695,392.989166 
	C476.183899,392.980225 479.996613,389.640076 479.996857,383.478851 
	C480.001160,270.145630 480.001617,156.812408 479.996002,43.479183 
	C479.995667,36.655457 477.310089,34.003490 470.416809,34.003281 
	C327.750275,33.998947 185.083755,34.012691 42.417263,33.944759 
	C37.665642,33.942497 35.071861,36.104252 33.912228,40.369244 
	C33.407299,42.226299 33.037182,44.189251 33.036480,46.104263 
	C32.995625,157.604141 33.055237,269.104126 32.880562,380.603729 
	C32.868416,388.359039 37.573818,393.135864 45.500534,393.122498 
	C153.500107,392.940460 261.500122,393.000000 370.500000,393.000000 
M197.937881,430.280731 
	C195.243912,436.306366 192.549942,442.332001 189.670731,448.771973 
	C234.653870,448.771973 279.016907,448.771973 323.722900,448.771973 
	C318.463318,436.498444 313.335266,424.270020 307.873291,412.192688 
	C307.329712,410.990753 304.755768,410.103302 303.117157,410.092041 
	C282.646088,409.951569 262.173676,410.000000 241.701630,410.000000 
	C229.902786,409.999969 218.103928,410.000000 206.351501,410.000000 
	C203.488403,416.685089 200.744202,423.092529 197.937881,430.280731 
M202.500000,481.000000 
	C256.056610,481.000000 309.613220,481.000000 363.169800,481.000000 
	C355.139832,476.099945 346.957275,471.900146 338.629211,468.012146 
	C336.210388,466.882935 333.376495,466.089966 330.730377,466.082916 
	C287.079620,465.966278 243.421143,466.451874 199.781616,465.742523 
	C185.480621,465.510071 172.510605,467.635681 160.390625,475.160553 
	C157.220322,477.128906 153.712128,478.553040 150.359116,480.227142 
	C150.452103,480.484772 150.545074,480.742371 150.638046,481.000000 
	C167.592026,481.000000 184.546021,481.000000 202.500000,481.000000 
z"/>
<path fill="none" opacity="1.000000" stroke="none" 
	d="
M370.000000,393.000000 
	C261.500122,393.000000 153.500107,392.940460 45.500534,393.122498 
	C37.573818,393.135864 32.868416,388.359039 32.880562,380.603729 
	C33.055237,269.104126 32.995625,157.604141 33.036480,46.104263 
	C33.037182,44.189251 33.407299,42.226299 33.912228,40.369244 
	C35.071861,36.104252 37.665642,33.942497 42.417263,33.944759 
	C185.083755,34.012691 327.750275,33.998947 470.416809,34.003281 
	C477.310089,34.003490 479.995667,36.655457 479.996002,43.479183 
	C480.001617,156.812408 480.001160,270.145630 479.996857,383.478851 
	C479.996613,389.640076 476.183899,392.980225 468.999695,392.989166 
	C445.833069,393.018066 422.666412,392.999969 399.499756,393.000000 
	C389.833160,393.000000 380.166595,393.000000 370.000000,393.000000 
M459.561646,336.955475 
	C462.933289,332.996277 465.004150,328.531982 465.003784,323.225494 
	C464.998352,239.082565 465.017151,154.939636 464.978546,70.796738 
	C464.973633,60.083294 453.904602,49.023415 443.186035,49.020638 
	C319.054413,48.988457 194.922729,48.977215 70.791267,49.121273 
	C67.407448,49.125202 63.712830,50.354889 60.701252,51.998783 
	C51.399864,57.076008 48.041790,65.748627 48.034218,75.813530 
	C47.973164,156.957260 47.944004,238.101120 48.047127,319.244751 
	C48.067825,335.531708 58.471958,345.927490 74.538048,345.941650 
	C195.837051,346.048523 317.136230,346.031464 438.435242,345.926880 
	C446.244843,345.920135 453.716064,344.049500 459.561646,336.955475 
M264.500000,378.000000 
	C272.155334,377.999268 279.815002,378.156433 287.464661,377.947662 
	C293.552795,377.781494 297.061859,374.375763 296.999756,369.297211 
	C296.938934,364.322235 294.082672,361.054871 289.254425,361.036804 
	C267.453644,360.955200 245.652206,360.955322 223.851410,361.035675 
	C218.931915,361.053802 215.390015,366.469086 216.602142,371.227936 
	C217.960068,376.559174 221.841248,377.940430 226.554825,377.972015 
	C238.869400,378.054413 251.184875,377.999939 264.500000,378.000000 
z"/>
<path fill="none" opacity="1.000000" stroke="none" 
	d="
M197.968933,429.890381 
	C200.744202,423.092529 203.488403,416.685089 206.351501,410.000000 
	C218.103928,410.000000 229.902786,409.999969 241.701630,410.000000 
	C262.173676,410.000000 282.646088,409.951569 303.117157,410.092041 
	C304.755768,410.103302 307.329712,410.990753 307.873291,412.192688 
	C313.335266,424.270020 318.463318,436.498444 323.722900,448.771973 
	C279.016907,448.771973 234.653870,448.771973 189.670731,448.771973 
	C192.549942,442.332001 195.243912,436.306366 197.968933,429.890381 
z"/>
<path fill="none" opacity="1.000000" stroke="none" 
	d="
M202.000000,481.000000 
	C184.546021,481.000000 167.592026,481.000000 150.638046,481.000000 
	C150.545074,480.742371 150.452103,480.484772 150.359116,480.227142 
	C153.712128,478.553040 157.220322,477.128906 160.390625,475.160553 
	C172.510605,467.635681 185.480621,465.510071 199.781616,465.742523 
	C243.421143,466.451874 287.079620,465.966278 330.730377,466.082916 
	C333.376495,466.089966 336.210388,466.882935 338.629211,468.012146 
	C346.957275,471.900146 355.139832,476.099945 363.169800,481.000000 
	C309.613220,481.000000 256.056610,481.000000 202.000000,481.000000 
z"/>
<path fill="color" opacity="1.000000" stroke="none" 
	d="
M459.294800,337.207550 
	C453.716064,344.049500 446.244843,345.920135 438.435242,345.926880 
	C317.136230,346.031464 195.837051,346.048523 74.538048,345.941650 
	C58.471958,345.927490 48.067825,335.531708 48.047127,319.244751 
	C47.944004,238.101120 47.973164,156.957260 48.034218,75.813530 
	C48.041790,65.748627 51.399864,57.076008 60.701252,51.998783 
	C63.712830,50.354889 67.407448,49.125202 70.791267,49.121273 
	C194.922729,48.977215 319.054413,48.988457 443.186035,49.020638 
	C453.904602,49.023415 464.973633,60.083294 464.978546,70.796738 
	C465.017151,154.939636 464.998352,239.082565 465.003784,323.225494 
	C465.004150,328.531982 462.933289,332.996277 459.294800,337.207550 
M232.500000,329.000000 
	C300.326599,329.000000 368.153290,328.961517 435.979767,329.044739 
	C445.313599,329.056183 448.197906,325.761871 448.154144,316.828064 
	C447.858551,256.502106 448.000000,196.173996 448.000000,135.846573 
	C448.000000,133.935638 448.000000,132.024704 448.000000,130.239563 
	C319.956207,130.239563 192.689713,130.239563 65.000000,130.239563 
	C65.000000,132.254349 65.000000,134.050507 65.000000,135.846649 
	C65.000000,196.007416 64.999550,256.168182 65.000450,316.328949 
	C65.000595,326.037262 67.924843,328.999084 77.515091,328.999359 
	C128.843399,329.000763 180.171692,329.000000 232.500000,329.000000 
M289.500000,66.000000 
	C218.017288,66.000000 146.534210,66.099876 75.052460,65.837585 
	C68.285919,65.812759 64.906708,70.282738 64.967278,76.137726 
	C65.081039,87.133881 64.988853,98.132088 65.015701,109.129349 
	C65.018768,110.385483 65.235146,111.641083 65.325951,112.611839 
	C193.131729,112.611839 320.503265,112.611839 448.000000,112.611839 
	C448.000000,100.063164 448.000763,87.902275 447.999786,75.741386 
	C447.999176,68.208008 445.839935,66.000603 438.464111,66.000465 
	C389.142731,65.999580 339.821381,66.000000 289.500000,66.000000 
z"/>
<path fill="color" opacity="1.000000" stroke="none" 
	d="
M264.000000,378.000000 
	C251.184875,377.999939 238.869400,378.054413 226.554825,377.972015 
	C221.841248,377.940430 217.960068,376.559174 216.602142,371.227936 
	C215.390015,366.469086 218.931915,361.053802 223.851410,361.035675 
	C245.652206,360.955322 267.453644,360.955200 289.254425,361.036804 
	C294.082672,361.054871 296.938934,364.322235 296.999756,369.297211 
	C297.061859,374.375763 293.552795,377.781494 287.464661,377.947662 
	C279.815002,378.156433 272.155334,377.999268 264.000000,378.000000 
z"/>
<path fill="none" opacity="1.000000" stroke="none" 
	d="
M232.000000,329.000000 
	C180.171692,329.000000 128.843399,329.000763 77.515091,328.999359 
	C67.924843,328.999084 65.000595,326.037262 65.000450,316.328949 
	C64.999550,256.168182 65.000000,196.007416 65.000000,135.846649 
	C65.000000,134.050507 65.000000,132.254349 65.000000,130.239563 
	C192.689713,130.239563 319.956207,130.239563 448.000000,130.239563 
	C448.000000,132.024704 448.000000,133.935638 448.000000,135.846573 
	C448.000000,196.173996 447.858551,256.502106 448.154144,316.828064 
	C448.197906,325.761871 445.313599,329.056183 435.979767,329.044739 
	C368.153290,328.961517 300.326599,329.000000 232.000000,329.000000 
M296.674591,259.815521 
	C296.703491,255.345230 297.658691,250.639908 296.594727,246.446915 
	C292.782318,231.422012 281.720001,221.514313 265.609344,220.810303 
	C255.969482,220.389069 251.371674,216.223114 249.100540,206.043991 
	C247.956039,200.914398 252.775162,193.894241 258.964325,190.999878 
	C266.357758,187.542343 274.746765,191.008743 279.396301,200.007782 
	C281.808319,204.676147 285.823425,204.586472 289.502411,203.784882 
	C292.876770,203.049652 295.269897,200.407837 295.049042,196.173523 
	C294.637085,188.276276 289.729584,183.310013 283.968689,179.087555 
	C280.659088,176.661774 275.224060,175.910355 273.516113,172.856049 
	C271.664642,169.545074 273.242310,164.418869 272.936005,160.111908 
	C272.645142,156.022293 270.116486,153.597321 266.052155,153.026276 
	C261.884369,152.440704 258.233978,153.820541 257.186707,157.997620 
	C256.165894,162.069122 256.566589,166.477737 255.884354,170.663528 
	C255.633606,172.201965 254.363861,173.945129 253.048904,174.869125 
	C249.233841,177.549927 244.353607,179.128265 241.329803,182.449036 
	C229.187881,195.783417 229.114594,213.863754 241.090897,227.497971 
	C247.627701,234.939713 256.609222,237.214844 266.093170,238.005569 
	C275.091400,238.755783 281.625122,247.053009 279.945770,255.754333 
	C278.374847,263.893860 270.772888,269.768280 261.594208,268.071442 
	C255.629532,266.968750 252.578812,262.966217 249.969025,258.080475 
	C247.690613,253.815155 243.198044,252.791855 238.560089,255.161133 
	C234.522537,257.223724 233.177643,261.547333 234.933029,265.832733 
	C238.413742,274.330048 244.262848,280.152985 253.037750,283.184357 
	C254.343185,283.635315 255.652679,285.795044 255.868515,287.318848 
	C256.307831,290.420746 255.840515,293.638367 256.040009,296.789764 
	C256.365479,301.931335 260.169861,305.945099 264.470764,305.978485 
	C269.385315,306.016632 272.988312,301.926514 272.998596,296.285034 
	C273.005859,292.304901 273.000000,288.324768 273.000000,284.638550 
	C285.412384,280.683044 293.464020,273.166321 296.674591,259.815521 
M162.078903,198.607590 
	C166.569412,202.621353 170.857452,202.658218 174.777374,198.716766 
	C178.236572,195.238541 178.051392,190.647873 174.055145,186.615143 
	C163.857681,176.324631 153.613358,166.080017 143.324692,155.880676 
	C139.579559,152.168076 135.492630,151.409119 131.627792,154.981644 
	C120.297791,165.454697 109.302254,176.300003 98.475090,187.294312 
	C97.012779,188.779221 96.695068,191.986816 96.830757,194.339996 
	C97.264381,201.860596 106.701065,203.933914 112.271133,198.227615 
	C117.201157,193.177032 122.158623,188.153244 128.000000,182.205231 
	C128.000000,185.249817 128.000000,186.858032 128.000000,188.466232 
	C128.000000,220.775192 127.999947,253.084167 128.000076,285.393127 
	C128.000092,289.057037 127.879021,292.725983 128.030472,296.383636 
	C128.254715,301.798584 132.121460,306.035645 136.564621,305.980133 
	C141.538925,305.917938 144.997681,301.916168 144.998230,296.189392 
	C145.001740,260.049988 145.000000,223.910583 145.000000,187.771179 
	C145.000000,186.019287 145.000000,184.267395 145.000000,181.178772 
	C151.167145,187.456650 156.375732,192.758774 162.078903,198.607590 
M378.649597,305.071808 
	C383.397552,304.363007 385.023193,301.336121 385.019043,296.849152 
	C384.985168,260.380829 385.000000,223.912476 385.000000,187.444122 
	C385.000000,185.770477 385.000000,184.096848 385.000000,181.415115 
	C391.347687,187.801743 396.722931,193.256241 402.152008,198.656647 
	C406.011810,202.496094 410.772736,202.599380 414.493195,199.019196 
	C418.096222,195.552048 418.173157,190.766159 414.358337,186.899918 
	C403.950867,176.352081 393.514801,165.829300 382.907959,155.483307 
	C379.713623,152.367523 375.525391,151.220322 371.896729,154.660843 
	C360.581329,165.389557 349.386536,176.252869 338.444977,187.359543 
	C336.994171,188.832199 336.769897,192.033997 336.856018,194.403046 
	C337.123566,201.762619 346.773682,203.988174 352.320953,198.181229 
	C357.186218,193.088165 362.113892,188.054672 368.000000,181.976715 
	C368.000000,195.617691 368.000000,207.560989 368.000000,219.504303 
	C368.000000,244.649155 368.041504,269.794128 367.973694,294.938782 
	C367.954437,302.086548 371.881470,306.339539 378.649597,305.071808 
z"/>
<path fill="none" opacity="1.000000" stroke="none" 
	d="
M290.000000,66.000000 
	C339.821381,66.000000 389.142731,65.999580 438.464111,66.000465 
	C445.839935,66.000603 447.999176,68.208008 447.999786,75.741386 
	C448.000763,87.902275 448.000000,100.063164 448.000000,112.611839 
	C320.503265,112.611839 193.131729,112.611839 65.325951,112.611839 
	C65.235146,111.641083 65.018768,110.385483 65.015701,109.129349 
	C64.988853,98.132088 65.081039,87.133881 64.967278,76.137726 
	C64.906708,70.282738 68.285919,65.812759 75.052460,65.837585 
	C146.534210,66.099876 218.017288,66.000000 290.000000,66.000000 
M104.999329,90.308327 
	C105.264030,86.339165 104.034935,83.237228 100.110817,81.583435 
	C96.547127,80.081535 93.027672,80.728729 90.657661,83.315170 
	C88.421555,85.755463 86.848785,89.527977 89.168716,92.575195 
	C90.948647,94.913147 94.022545,97.526474 96.643143,97.662445 
	C100.383514,97.856529 104.075745,95.702347 104.999329,90.308327 
M128.500275,81.000183 
	C122.843292,81.544327 119.328522,86.195808 120.503059,91.106384 
	C121.598091,95.684532 124.813858,97.658653 128.904984,97.841240 
	C133.124405,98.029549 136.904480,93.856995 136.999588,89.863014 
	C137.126617,84.527969 135.074539,82.157097 128.500275,81.000183 
M152.493393,88.005013 
	C152.637680,89.208817 152.598724,90.470680 152.958450,91.606232 
	C154.398926,96.153130 157.796539,98.553673 161.515518,97.805069 
	C166.343796,96.833176 169.078934,93.688614 168.999634,89.200645 
	C168.920197,84.705132 166.268494,81.530167 162.154846,81.005165 
	C157.236176,80.377426 154.355286,82.357025 152.493393,88.005013 
z"/>
<path fill="color" opacity="1.000000" stroke="none" 
	d="
M296.389038,260.149597 
	C293.464020,273.166321 285.412384,280.683044 273.000000,284.638550 
	C273.000000,288.324768 273.005859,292.304901 272.998596,296.285034 
	C272.988312,301.926514 269.385315,306.016632 264.470764,305.978485 
	C260.169861,305.945099 256.365479,301.931335 256.040009,296.789764 
	C255.840515,293.638367 256.307831,290.420746 255.868515,287.318848 
	C255.652679,285.795044 254.343185,283.635315 253.037750,283.184357 
	C244.262848,280.152985 238.413742,274.330048 234.933029,265.832733 
	C233.177643,261.547333 234.522537,257.223724 238.560089,255.161133 
	C243.198044,252.791855 247.690613,253.815155 249.969025,258.080475 
	C252.578812,262.966217 255.629532,266.968750 261.594208,268.071442 
	C270.772888,269.768280 278.374847,263.893860 279.945770,255.754333 
	C281.625122,247.053009 275.091400,238.755783 266.093170,238.005569 
	C256.609222,237.214844 247.627701,234.939713 241.090897,227.497971 
	C229.114594,213.863754 229.187881,195.783417 241.329803,182.449036 
	C244.353607,179.128265 249.233841,177.549927 253.048904,174.869125 
	C254.363861,173.945129 255.633606,172.201965 255.884354,170.663528 
	C256.566589,166.477737 256.165894,162.069122 257.186707,157.997620 
	C258.233978,153.820541 261.884369,152.440704 266.052155,153.026276 
	C270.116486,153.597321 272.645142,156.022293 272.936005,160.111908 
	C273.242310,164.418869 271.664642,169.545074 273.516113,172.856049 
	C275.224060,175.910355 280.659088,176.661774 283.968689,179.087555 
	C289.729584,183.310013 294.637085,188.276276 295.049042,196.173523 
	C295.269897,200.407837 292.876770,203.049652 289.502411,203.784882 
	C285.823425,204.586472 281.808319,204.676147 279.396301,200.007782 
	C274.746765,191.008743 266.357758,187.542343 258.964325,190.999878 
	C252.775162,193.894241 247.956039,200.914398 249.100540,206.043991 
	C251.371674,216.223114 255.969482,220.389069 265.609344,220.810303 
	C281.720001,221.514313 292.782318,231.422012 296.594727,246.446915 
	C297.658691,250.639908 296.703491,255.345230 296.389038,260.149597 
z"/>
<path fill="color" opacity="1.000000" stroke="none" 
	d="
M161.831604,198.334244 
	C156.375732,192.758774 151.167145,187.456650 145.000000,181.178772 
	C145.000000,184.267395 145.000000,186.019287 145.000000,187.771179 
	C145.000000,223.910583 145.001740,260.049988 144.998230,296.189392 
	C144.997681,301.916168 141.538925,305.917938 136.564621,305.980133 
	C132.121460,306.035645 128.254715,301.798584 128.030472,296.383636 
	C127.879021,292.725983 128.000092,289.057037 128.000076,285.393127 
	C127.999947,253.084167 128.000000,220.775192 128.000000,188.466232 
	C128.000000,186.858032 128.000000,185.249817 128.000000,182.205231 
	C122.158623,188.153244 117.201157,193.177032 112.271133,198.227615 
	C106.701065,203.933914 97.264381,201.860596 96.830757,194.339996 
	C96.695068,191.986816 97.012779,188.779221 98.475090,187.294312 
	C109.302254,176.300003 120.297791,165.454697 131.627792,154.981644 
	C135.492630,151.409119 139.579559,152.168076 143.324692,155.880676 
	C153.613358,166.080017 163.857681,176.324631 174.055145,186.615143 
	C178.051392,190.647873 178.236572,195.238541 174.777374,198.716766 
	C170.857452,202.658218 166.569412,202.621353 161.831604,198.334244 
z"/>
<path fill="color" opacity="1.000000" stroke="none" 
	d="
M378.320984,305.290741 
	C371.881470,306.339539 367.954437,302.086548 367.973694,294.938782 
	C368.041504,269.794128 368.000000,244.649155 368.000000,219.504303 
	C368.000000,207.560989 368.000000,195.617691 368.000000,181.976715 
	C362.113892,188.054672 357.186218,193.088165 352.320953,198.181229 
	C346.773682,203.988174 337.123566,201.762619 336.856018,194.403046 
	C336.769897,192.033997 336.994171,188.832199 338.444977,187.359543 
	C349.386536,176.252869 360.581329,165.389557 371.896729,154.660843 
	C375.525391,151.220322 379.713623,152.367523 382.907959,155.483307 
	C393.514801,165.829300 403.950867,176.352081 414.358337,186.899918 
	C418.173157,190.766159 418.096222,195.552048 414.493195,199.019196 
	C410.772736,202.599380 406.011810,202.496094 402.152008,198.656647 
	C396.722931,193.256241 391.347687,187.801743 385.000000,181.415115 
	C385.000000,184.096848 385.000000,185.770477 385.000000,187.444122 
	C385.000000,223.912476 384.985168,260.380829 385.019043,296.849152 
	C385.023193,301.336121 383.397552,304.363007 378.320984,305.290741 
z"/>
<path fill="color" opacity="1.000000" stroke="none" 
	d="
M104.997208,90.721397 
	C104.075745,95.702347 100.383514,97.856529 96.643143,97.662445 
	C94.022545,97.526474 90.948647,94.913147 89.168716,92.575195 
	C86.848785,89.527977 88.421555,85.755463 90.657661,83.315170 
	C93.027672,80.728729 96.547127,80.081535 100.110817,81.583435 
	C104.034935,83.237228 105.264030,86.339165 104.997208,90.721397 
z"/>
<path fill="color" opacity="1.000000" stroke="none" 
	d="
M128.914581,81.000427 
	C135.074539,82.157097 137.126617,84.527969 136.999588,89.863014 
	C136.904480,93.856995 133.124405,98.029549 128.904984,97.841240 
	C124.813858,97.658653 121.598091,95.684532 120.503059,91.106384 
	C119.328522,86.195808 122.843292,81.544327 128.914581,81.000427 
z"/>
<path fill="color" opacity="1.000000" stroke="none" 
	d="
M152.711456,87.674675 
	C154.355286,82.357025 157.236176,80.377426 162.154846,81.005165 
	C166.268494,81.530167 168.920197,84.705132 168.999634,89.200645 
	C169.078934,93.688614 166.343796,96.833176 161.515518,97.805069 
	C157.796539,98.553673 154.398926,96.153130 152.958450,91.606232 
	C152.598724,90.470680 152.637680,89.208817 152.711456,87.674675 
z"/>
</svg>