<svg xmlns="http://www.w3.org/2000/svg" viewBox="0 0 19.7 12.58"><defs><style>.cls-1{fill:#606060;}</style></defs><g id="Capa_2" data-name="Capa 2"><g id="Capa_1-2" data-name="Capa 1"><path class="cls-1" d="M16.9,7.22H5.47a.87.87,0,0,1-1-1,.83.83,0,0,1,.77-.78H16.81c-.06-.09-.1-.16-.15-.22l-3-3.7A.87.87,0,0,1,13.71.22.86.86,0,0,1,15,.37l4.47,5.37a.86.86,0,0,1,0,1.19q-2.2,2.65-4.42,5.3A.86.86,0,0,1,14,12.5a.85.85,0,0,1-.47-.87,1.05,1.05,0,0,1,.21-.47c1-1.22,2-2.43,3-3.64Z"/><path class="cls-1" d="M1.76,7.22c-.29,0-.58,0-.87,0A.85.85,0,0,1,0,6.32a.83.83,0,0,1,.88-.88c.61,0,1.21,0,1.82,0a.84.84,0,0,1,.88.88.91.91,0,0,1-.87.91Z"/></g></g></svg>