<svg xmlns="http://www.w3.org/2000/svg" viewBox="0 0 82.57 82.3"><defs><style>.cls-1{fill:#0f131b;}</style></defs><g id="Capa_2" data-name="Capa 2"><g id="Capa_1-2" data-name="Capa 1"><path class="cls-1" d="M0,29a5.59,5.59,0,0,1,2.6-3.88,5,5,0,0,1,7.6,4.09c.23,4.77.05,9.55.05,14.38H7.76v-.95c0-4.33,0-8.65,0-13a2.6,2.6,0,1,0-5.2-.08q0,12,0,24.1a2.91,2.91,0,0,0,1,2.19c2.52,2.5,5,5,7.53,7.51a9.55,9.55,0,0,1,3.1,7.49c-.05,1.2,0,2.41,0,3.68H11.63c0-1.29-.05-2.55,0-3.8a7,7,0,0,0-2.29-5.54C7.06,63,4.83,60.72,2.56,58.47,1.38,57.3.12,56.18,0,54.36Z"/><path class="cls-1" d="M40,66.86V65.71Q40,50,40,34.27c0-.73-.11-1-1-1.15a16.61,16.61,0,1,1,6-.29,14.61,14.61,0,0,1-2,.33c-.44.05-.63.22-.6.66,0,.24,0,.48,0,.73V65.67c0,1.2,0,1.2-1.22,1.2Zm1.23-36A14.13,14.13,0,0,0,55.48,16.68,14.26,14.26,0,1,0,27,16.6,14.15,14.15,0,0,0,41.22,30.87Z"/><path class="cls-1" d="M74.66,43.63H72.23a4,4,0,0,1-.07-.57c0-4.41,0-8.82,0-13.22a5.19,5.19,0,1,1,10.37-.12c0,3.84,0,7.69,0,11.53,0,4,0,8,0,12a5.71,5.71,0,0,1-1.79,4.32c-2.5,2.48-4.94,5-7.48,7.45a7.43,7.43,0,0,0-2.5,6c.06,1.15,0,2.3,0,3.57-.74,0-1.4,0-2.06,0-.15,0-.41-.23-.41-.35.06-2.69-.5-5.47.92-8a14.45,14.45,0,0,1,2.11-2.81c2.46-2.55,5-5,7.52-7.53A3.56,3.56,0,0,0,80,53.16c0-7.79-.06-15.59,0-23.38a2.7,2.7,0,1,0-5.39.06c0,4.27,0,8.55,0,12.82Z"/><path class="cls-1" d="M23.08,61.67H20.62c.29-1.8-.88-2.9-1.9-4.07Q15.87,54.32,13,51a4.88,4.88,0,0,1-1-5.31,5,5,0,0,1,4.38-3.21,4.75,4.75,0,0,1,4.05,1.59l5.45,5.61c.92.94,1.83,1.9,2.76,2.83a11.92,11.92,0,0,1,3.54,8.63c0,4.22,0,8.44,0,12.65,0,.61-.15.9-.81.84s-1.06,0-1.71,0v-1c0-4.08,0-8.17,0-12.25a9.7,9.7,0,0,0-2.92-7.18c-2.72-2.75-5.39-5.55-8.09-8.32a2.57,2.57,0,1,0-3.79,3.46c2.24,2.61,4.47,5.23,6.76,7.79a6.15,6.15,0,0,1,1.51,4.13A2.72,2.72,0,0,1,23.08,61.67Z"/><path class="cls-1" d="M61.7,61.67H59.37a5.56,5.56,0,0,1,1.29-4.36c2.33-2.67,4.65-5.36,7-8a2.48,2.48,0,0,0-.14-3.54A2.35,2.35,0,0,0,64,45.66c-3,3.1-6.08,6.22-9,9.4a8.78,8.78,0,0,0-2.2,6.31c0,4.11,0,8.22,0,12.33,0,.71-.15,1-.93,1-1.56,0-1.56,0-1.56-1.6,0-3.89,0-7.79,0-11.68a11.77,11.77,0,0,1,3.29-8.56c2.79-2.95,5.59-5.88,8.47-8.73a5,5,0,0,1,8.62,2.44,4.55,4.55,0,0,1-1,4.22q-3.06,3.59-6.16,7.13C62,59.53,62,59.53,61.7,61.67Z"/><path class="cls-1" d="M40,71.91V69.56h2.37v2.35Z"/><path class="cls-1" d="M40,77.07V74.72h2.38v2.35Z"/><path class="cls-1" d="M40,82.29V79.88h2.42c0,.68,0,1.34,0,2,0,.15-.29.38-.46.39C41.36,82.32,40.74,82.29,40,82.29Z"/><path class="cls-1" d="M46.23,21.05a4.9,4.9,0,0,1-3.15,4.11,1,1,0,0,0-.71,1.15,1.92,1.92,0,0,1,0,.24c0,1.75-.11,1.86-1.85,1.59-.18,0-.47-.34-.45-.47a2.62,2.62,0,0,0-1.75-3.15,4.21,4.21,0,0,1-2.07-3.12c-.11-.53,0-.78.56-.76.32,0,.64,0,1,0a.79.79,0,0,1,.92.66,2.67,2.67,0,0,0,2.95,1.83,2.83,2.83,0,0,0,2.25-2.42A2.81,2.81,0,0,0,42,18c-.25-.1-.65-.27-.67-.44a7,7,0,0,1,0-1.83c0-.09.58-.18.86-.12A5.28,5.28,0,0,1,46.23,21.05Z"/><path class="cls-1" d="M41.11,17.74a5,5,0,0,1-4.83-4,4.94,4.94,0,0,1,2.77-5.46,1.38,1.38,0,0,0,1-1.53C40,5,40,5,41.79,5.21c.21,0,.57.38.55.54A2.43,2.43,0,0,0,44,8.65a4.38,4.38,0,0,1,2.2,3.14c.14.57.06,1-.67.88a3.06,3.06,0,0,0-.8,0c-.63.1-.8-.24-1-.77A2.75,2.75,0,0,0,41,10.09a2.9,2.9,0,0,0-2.4,2.39,2.55,2.55,0,0,0,1.72,2.71c.81.24.88.7.84,1.36C41.09,17,41.11,17.35,41.11,17.74Z"/><path class="cls-1" d="M32.17,17.85H29.73V15.39c.7,0,1.4,0,2.11,0a.51.51,0,0,1,.32.36C32.19,16.45,32.17,17.13,32.17,17.85Z"/><path class="cls-1" d="M50.29,17.82c0-.68,0-1.3,0-1.9a.73.73,0,0,1,.48-.51,17,17,0,0,1,1.9,0v2.44Z"/></g></g></svg>