<svg version="1.1" id="Layer_1" xmlns="http://www.w3.org/2000/svg" xmlns:xlink="http://www.w3.org/1999/xlink" x="0px" y="0px"
	 width="100%" viewBox="0 0 512 512" enable-background="new 0 0 512 512" xml:space="preserve">
<path fill="none" opacity="1.000000" stroke="none" 
	d="
M287.000000,513.000000 
	C191.356552,513.000000 96.213104,513.000000 1.034826,513.000000 
	C1.034826,342.398193 1.034826,171.796371 1.034826,1.097280 
	C171.560135,1.097280 342.120331,1.097280 512.840271,1.097280 
	C512.840271,171.666550 512.840271,342.333252 512.840271,513.000000 
	C437.796356,513.000000 362.648163,513.000000 287.000000,513.000000 
M337.502808,285.019592 
	C340.229095,289.050385 342.955383,293.081177 345.830841,297.332489 
	C344.370392,299.052734 342.460571,300.893219 341.033722,303.052765 
	C334.318420,313.216522 327.771790,323.491760 321.050751,333.651611 
	C320.362854,334.691437 318.921051,335.884003 317.815979,335.897095 
	C304.697235,336.052521 291.575989,335.997192 278.002411,335.997192 
	C278.002411,330.115753 277.843872,324.653381 278.112000,319.212036 
	C278.180450,317.823181 279.275391,316.021484 280.451172,315.223999 
	C289.773712,308.900665 293.796448,299.932556 293.984375,288.976593 
	C294.074951,283.696045 294.000000,278.412689 294.000000,273.179993 
	C302.562500,272.750366 309.947540,267.699768 309.791382,261.287598 
	C309.541473,251.026932 312.410919,240.430695 307.321106,230.492859 
	C306.740509,229.359238 307.121460,227.572617 307.428284,226.170074 
	C310.237030,213.330719 318.516479,203.609497 326.025421,193.398468 
	C333.343536,183.446884 341.214508,173.740204 347.210876,163.013733 
	C357.958557,143.788071 360.386841,122.600563 356.805450,101.116005 
	C352.429626,74.865898 339.160675,53.263962 317.782532,37.562473 
	C291.641968,18.363159 262.188477,12.019823 230.268234,19.024336 
	C205.607315,24.435877 184.876053,36.857578 169.804840,57.015362 
	C154.190445,77.899689 146.832458,101.595024 149.868515,128.172806 
	C151.699829,144.204391 156.341293,158.980392 165.642441,172.145065 
	C175.032257,185.435211 184.960724,198.352859 194.084763,211.818848 
	C197.870956,217.406784 202.006866,224.254654 199.607986,230.964706 
	C196.925583,238.467819 197.366165,245.805557 196.954544,253.302063 
	C196.656235,258.734863 197.188354,264.263306 200.928314,268.042114 
	C203.877533,271.021942 208.497238,272.348480 213.000000,274.741455 
	C213.000000,276.677765 213.165924,279.676331 212.971603,282.651398 
	C212.079514,296.308960 216.215347,307.693573 227.637482,315.909058 
	C228.204239,316.316742 228.915741,317.040192 228.924820,317.626434 
	C229.019058,323.709564 228.982788,329.794708 228.982788,335.999969 
	C215.917282,335.999969 203.588196,335.865509 191.265579,336.088562 
	C187.923538,336.149078 186.572433,334.787842 184.892914,332.106750 
	C178.256149,321.512054 171.348770,311.074463 164.171631,300.838135 
	C161.927582,297.637573 162.291794,295.726776 164.541061,292.829742 
	C177.318176,276.372620 182.736908,257.513977 179.764084,237.012970 
	C176.817947,216.695892 165.113968,200.687347 150.914505,186.568756 
	C145.120621,180.807877 138.547745,175.801285 132.121857,170.713486 
	C125.856140,165.752502 119.761353,168.278549 117.387817,174.309616 
	C113.784065,183.466614 109.985786,192.652771 107.612411,202.161575 
	C104.628983,214.114502 103.674362,226.383087 106.833862,238.653183 
	C108.875038,246.580154 110.505051,254.612991 112.270569,262.383850 
	C110.107658,261.672546 107.620384,260.523682 105.011147,260.057587 
	C96.687378,258.570648 88.342186,257.153931 79.959389,256.062439 
	C72.856651,255.137634 67.568558,261.235596 69.082863,268.211426 
	C69.288147,269.157074 69.824615,270.039154 69.973358,270.987457 
	C72.627327,287.907990 81.247253,300.932404 96.532112,308.571930 
	C103.193428,311.901306 110.890572,313.905548 118.318970,314.761627 
	C127.380730,315.805878 136.654922,314.969971 145.836639,315.032776 
	C148.574478,315.051483 152.612564,314.272369 153.819992,315.721252 
	C158.846634,321.753113 163.020554,328.495605 168.215332,336.000305 
	C161.287720,336.000305 155.846069,335.828461 150.418991,336.036682 
	C139.702423,336.447845 133.041672,343.394501 133.003143,353.629517 
	C132.984940,358.462341 132.956131,363.295776 133.009186,368.128082 
	C133.120712,378.285828 139.844330,384.980194 149.895950,384.999146 
	C152.862335,385.004730 155.828751,385.000000 158.796844,385.000000 
	C159.267120,388.043304 159.537689,390.650208 160.083786,393.198029 
	C166.714844,424.135010 173.394180,455.061676 180.042740,485.994904 
	C181.961182,494.920715 183.705353,496.985962 189.835831,496.988953 
	C232.331909,497.009766 274.828003,496.983368 317.324036,497.022491 
	C322.171967,497.026947 325.016205,494.822906 325.998993,490.117859 
	C328.056000,480.270508 330.078156,470.415649 332.186310,460.579254 
	C336.776398,439.162384 341.514160,417.776550 345.985718,396.335114 
	C348.305298,385.212555 348.107208,385.171234 359.260742,384.999908 
	C364.934753,384.912750 371.876556,380.454041 372.781097,374.697784 
	C373.951233,367.251373 373.586212,359.571198 374.023865,351.999847 
	C374.368500,346.038300 369.304199,337.889709 361.832642,337.057770 
	C354.813660,336.276245 347.737396,336.009430 339.801056,335.454193 
	C343.119232,330.511230 347.115082,326.042511 349.369629,320.821747 
	C352.138092,314.411102 356.594269,314.139648 362.148712,314.999390 
	C376.822235,317.270599 391.136688,316.208649 405.208954,311.079529 
	C424.142731,304.178528 437.229187,285.507721 437.961243,265.856445 
	C438.201599,259.404297 434.127319,255.387497 427.617279,256.100281 
	C419.872192,256.948273 412.197144,258.474426 404.514252,259.833832 
	C401.424957,260.380432 398.395416,261.264618 395.334106,261.996246 
	C395.155273,261.144470 394.952545,260.782501 395.042511,260.521332 
	C400.646667,244.251022 403.445801,227.754395 401.133606,210.407547 
	C399.391449,197.337509 395.582611,185.043732 389.638855,173.446884 
	C386.563843,167.447235 381.423859,166.666992 375.745422,170.760300 
	C361.119934,181.303131 348.030518,193.356735 338.492401,208.940140 
	C323.230072,233.875809 323.121765,259.010956 337.502808,285.019592 
z"/>
<path fill="color" opacity="1.000000" stroke="none" 
	d="
M337.243500,284.747986 
	C323.121765,259.010956 323.230072,233.875809 338.492401,208.940140 
	C348.030518,193.356735 361.119934,181.303131 375.745422,170.760300 
	C381.423859,166.666992 386.563843,167.447235 389.638855,173.446884 
	C395.582611,185.043732 399.391449,197.337509 401.133606,210.407547 
	C403.445801,227.754395 400.646667,244.251022 395.042511,260.521332 
	C394.952545,260.782501 395.155273,261.144470 395.334106,261.996246 
	C398.395416,261.264618 401.424957,260.380432 404.514252,259.833832 
	C412.197144,258.474426 419.872192,256.948273 427.617279,256.100281 
	C434.127319,255.387497 438.201599,259.404297 437.961243,265.856445 
	C437.229187,285.507721 424.142731,304.178528 405.208954,311.079529 
	C391.136688,316.208649 376.822235,317.270599 362.148712,314.999390 
	C356.594269,314.139648 352.138092,314.411102 349.369629,320.821747 
	C347.115082,326.042511 343.119232,330.511230 339.801056,335.454193 
	C347.737396,336.009430 354.813660,336.276245 361.832642,337.057770 
	C369.304199,337.889709 374.368500,346.038300 374.023865,351.999847 
	C373.586212,359.571198 373.951233,367.251373 372.781097,374.697784 
	C371.876556,380.454041 364.934753,384.912750 359.260742,384.999908 
	C348.107208,385.171234 348.305298,385.212555 345.985718,396.335114 
	C341.514160,417.776550 336.776398,439.162384 332.186310,460.579254 
	C330.078156,470.415649 328.056000,480.270508 325.998993,490.117859 
	C325.016205,494.822906 322.171967,497.026947 317.324036,497.022491 
	C274.828003,496.983368 232.331909,497.009766 189.835831,496.988953 
	C183.705353,496.985962 181.961182,494.920715 180.042740,485.994904 
	C173.394180,455.061676 166.714844,424.135010 160.083786,393.198029 
	C159.537689,390.650208 159.267120,388.043304 158.796844,385.000000 
	C155.828751,385.000000 152.862335,385.004730 149.895950,384.999146 
	C139.844330,384.980194 133.120712,378.285828 133.009186,368.128082 
	C132.956131,363.295776 132.984940,358.462341 133.003143,353.629517 
	C133.041672,343.394501 139.702423,336.447845 150.418991,336.036682 
	C155.846069,335.828461 161.287720,336.000305 168.215332,336.000305 
	C163.020554,328.495605 158.846634,321.753113 153.819992,315.721252 
	C152.612564,314.272369 148.574478,315.051483 145.836639,315.032776 
	C136.654922,314.969971 127.380730,315.805878 118.318970,314.761627 
	C110.890572,313.905548 103.193428,311.901306 96.532112,308.571930 
	C81.247253,300.932404 72.627327,287.907990 69.973358,270.987457 
	C69.824615,270.039154 69.288147,269.157074 69.082863,268.211426 
	C67.568558,261.235596 72.856651,255.137634 79.959389,256.062439 
	C88.342186,257.153931 96.687378,258.570648 105.011147,260.057587 
	C107.620384,260.523682 110.107658,261.672546 112.270569,262.383850 
	C110.505051,254.612991 108.875038,246.580154 106.833862,238.653183 
	C103.674362,226.383087 104.628983,214.114502 107.612411,202.161575 
	C109.985786,192.652771 113.784065,183.466614 117.387817,174.309616 
	C119.761353,168.278549 125.856140,165.752502 132.121857,170.713486 
	C138.547745,175.801285 145.120621,180.807877 150.914505,186.568756 
	C165.113968,200.687347 176.817947,216.695892 179.764084,237.012970 
	C182.736908,257.513977 177.318176,276.372620 164.541061,292.829742 
	C162.291794,295.726776 161.927582,297.637573 164.171631,300.838135 
	C171.348770,311.074463 178.256149,321.512054 184.892914,332.106750 
	C186.572433,334.787842 187.923538,336.149078 191.265579,336.088562 
	C203.588196,335.865509 215.917282,335.999969 228.982788,335.999969 
	C228.982788,329.794708 229.019058,323.709564 228.924820,317.626434 
	C228.915741,317.040192 228.204239,316.316742 227.637482,315.909058 
	C216.215347,307.693573 212.079514,296.308960 212.971603,282.651398 
	C213.165924,279.676331 213.000000,276.677765 213.000000,274.741455 
	C208.497238,272.348480 203.877533,271.021942 200.928314,268.042114 
	C197.188354,264.263306 196.656235,258.734863 196.954544,253.302063 
	C197.366165,245.805557 196.925583,238.467819 199.607986,230.964706 
	C202.006866,224.254654 197.870956,217.406784 194.084763,211.818848 
	C184.960724,198.352859 175.032257,185.435211 165.642441,172.145065 
	C156.341293,158.980392 151.699829,144.204391 149.868515,128.172806 
	C146.832458,101.595024 154.190445,77.899689 169.804840,57.015362 
	C184.876053,36.857578 205.607315,24.435877 230.268234,19.024336 
	C262.188477,12.019823 291.641968,18.363159 317.782532,37.562473 
	C339.160675,53.263962 352.429626,74.865898 356.805450,101.116005 
	C360.386841,122.600563 357.958557,143.788071 347.210876,163.013733 
	C341.214508,173.740204 333.343536,183.446884 326.025421,193.398468 
	C318.516479,203.609497 310.237030,213.330719 307.428284,226.170074 
	C307.121460,227.572617 306.740509,229.359238 307.321106,230.492859 
	C312.410919,240.430695 309.541473,251.026932 309.791382,261.287598 
	C309.947540,267.699768 302.562500,272.750366 294.000000,273.179993 
	C294.000000,278.412689 294.074951,283.696045 293.984375,288.976593 
	C293.796448,299.932556 289.773712,308.900665 280.451172,315.223999 
	C279.275391,316.021484 278.180450,317.823181 278.112000,319.212036 
	C277.843872,324.653381 278.002411,330.115753 278.002411,335.997192 
	C291.575989,335.997192 304.697235,336.052521 317.815979,335.897095 
	C318.921051,335.884003 320.362854,334.691437 321.050751,333.651611 
	C327.771790,323.491760 334.318420,313.216522 341.033722,303.052765 
	C342.460571,300.893219 344.370392,299.052734 345.830841,297.332489 
	C342.955383,293.081177 340.229095,289.050385 337.243500,284.747986 
M296.888062,174.614639 
	C290.703857,175.762787 284.519684,176.910950 278.361450,178.054291 
	C278.361450,193.053955 278.361450,208.452469 278.361450,223.999969 
	C281.048523,223.999969 283.381378,223.896851 285.701416,224.025177 
	C288.843597,224.199005 290.317200,223.654282 291.364197,219.813751 
	C293.128845,213.340897 295.787964,206.784470 299.525085,201.244049 
	C307.625519,189.234756 316.783539,177.945145 325.255707,166.178802 
	C337.378723,149.342072 343.154205,130.347443 340.783997,109.793640 
	C338.305878,88.304161 329.117523,69.946045 312.187744,55.493149 
	C291.251587,37.620029 267.194336,30.402601 240.427734,34.269379 
	C216.978409,37.656937 197.432404,49.177425 183.059708,68.469810 
	C166.589874,90.577179 162.200317,114.872810 169.764984,141.490158 
	C174.649063,158.675507 186.152069,171.606613 196.719208,185.166626 
	C205.150848,195.986313 212.972061,207.055161 216.127899,220.753784 
	C216.412857,221.990692 217.925095,223.700226 219.043243,223.846573 
	C222.248108,224.266022 225.543427,223.994278 228.621246,223.994278 
	C228.621246,207.916306 228.621246,192.519257 228.621246,177.146545 
	C208.225250,176.307999 196.924515,168.159409 197.130417,153.684418 
	C197.327377,139.837204 204.340988,129.810120 220.635574,128.329697 
	C225.667877,127.872505 231.808655,130.079376 236.103836,133.020538 
	C245.194733,139.245667 247.146667,149.154312 245.852081,160.000000 
	C248.846191,160.000000 251.147308,160.000000 253.448410,160.000000 
	C255.883118,160.000000 258.317810,160.000000 260.738678,160.000000 
	C260.829712,136.155487 270.659454,130.452698 284.349518,128.073898 
	C293.609192,126.464943 305.293701,134.460602 308.874329,144.861984 
	C311.983337,153.893326 309.977386,167.314377 296.888062,174.614639 
M259.500000,385.000000 
	C231.745224,385.000000 203.990463,385.000000 176.140320,385.000000 
	C182.971039,416.871826 189.693054,448.236420 196.458099,479.801819 
	C234.490570,479.801819 272.578644,479.801819 310.820129,479.801819 
	C317.576813,448.291748 324.304199,416.918274 331.148438,385.000000 
	C307.381409,385.000000 283.940704,385.000000 259.500000,385.000000 
M202.500000,353.000000 
	C185.087769,353.000000 167.675537,353.000000 150.350372,353.000000 
	C150.350372,358.361542 150.350372,363.083557 150.350372,367.685669 
	C219.377487,367.685669 288.053833,367.685669 356.649780,367.685669 
	C356.649780,362.641449 356.649780,357.917023 356.649780,353.000000 
	C305.366547,353.000000 254.433273,353.000000 202.500000,353.000000 
M356.464630,282.951294 
	C357.772186,282.669403 359.659088,282.843445 360.296082,282.033905 
	C365.626862,275.259186 371.485809,268.737640 375.738251,261.311066 
	C384.195038,246.541916 387.309509,230.313629 384.872070,213.407776 
	C383.741730,205.568100 381.278320,197.920609 379.419281,190.185974 
	C378.785370,189.995621 378.151459,189.805267 377.517548,189.614914 
	C370.296295,197.628052 362.514587,205.213821 355.995758,213.762619 
	C347.859955,224.432007 342.859192,236.568588 343.999878,250.484375 
	C344.965088,262.259583 349.371368,272.732330 356.464630,282.951294 
M156.084061,274.484131 
	C175.446732,238.332794 152.415237,208.800217 128.409439,190.477676 
	C114.788918,226.104904 122.557281,257.083557 149.309250,284.574493 
	C151.668198,281.260406 153.812134,278.248413 156.084061,274.484131 
M230.000000,287.245850 
	C230.138718,297.575073 236.625443,303.998474 246.920059,303.999908 
	C251.574783,304.000580 256.230469,303.939880 260.883972,304.014343 
	C267.568512,304.121277 273.256561,301.324890 275.034637,295.152588 
	C277.020721,288.257996 276.935089,280.766632 277.784760,273.236725 
	C261.158752,273.236725 245.793625,273.236725 230.000000,273.236725 
	C230.000000,277.742767 230.000000,282.024323 230.000000,287.245850 
M235.500137,256.000000 
	C254.557480,256.000000 273.614838,256.000000 292.688263,256.000000 
	C292.688263,250.709549 292.688263,245.991501 292.688263,241.283157 
	C266.361023,241.283157 240.346573,241.283157 214.311295,241.283157 
	C214.311295,246.291489 214.311295,251.008987 214.311295,256.000000 
	C221.246490,256.000000 227.873352,256.000000 235.500137,256.000000 
M254.464142,224.000000 
	C256.554443,224.000000 258.644745,224.000000 260.703735,224.000000 
	C260.703735,208.015152 260.703735,192.659363 260.703735,177.319321 
	C255.687439,177.319321 250.972534,177.319321 246.301987,177.319321 
	C246.301987,192.996460 246.301987,208.352386 246.301987,224.000000 
	C248.900726,224.000000 251.200363,224.000000 254.464142,224.000000 
M418.110687,274.059143 
	C399.426147,277.296173 382.930786,284.819702 369.584778,298.790436 
	C375.626678,298.923828 381.498962,298.519135 387.359894,297.988892 
	C401.026611,296.752319 414.339417,288.780579 418.110687,274.059143 
M111.673325,280.931702 
	C104.037186,278.389404 96.401047,275.847076 87.887672,273.012695 
	C94.520096,293.141602 115.338417,301.260437 139.152969,297.234406 
	C130.253937,291.822357 121.354912,286.410309 111.673325,280.931702 
M255.420578,321.000000 
	C252.347061,321.000000 249.273544,321.000000 246.340149,321.000000 
	C246.340149,326.382965 246.340149,331.086548 246.340149,335.656921 
	C251.391495,335.656921 256.093414,335.656921 260.829590,335.656921 
	C260.829590,330.727661 260.829590,326.142609 260.829590,321.238220 
	C259.256439,321.153992 257.818359,321.076996 255.420578,321.000000 
M286.049133,159.999588 
	C290.048615,159.754410 292.403503,157.460922 292.934143,153.687851 
	C293.564331,149.206848 290.635315,146.573441 286.866791,145.570465 
	C283.387939,144.644592 280.330383,146.798416 279.170044,149.959030 
	C278.059570,152.983856 278.156464,156.451920 277.686310,159.999954 
	C280.861572,159.999954 283.011841,159.999954 286.049133,159.999588 
M216.582657,158.053360 
	C220.540207,158.928619 224.497757,159.803894 228.996521,160.798843 
	C228.996521,156.983887 229.730820,154.197098 228.808777,152.160034 
	C227.681778,149.670166 225.507431,147.128494 223.122345,145.930298 
	C221.681335,145.206375 218.629120,146.505020 216.918396,147.746109 
	C213.214508,150.433212 213.584671,153.981934 216.582657,158.053360 
z"/>
<path fill="none" opacity="1.000000" stroke="none" 
	d="
M297.177734,174.354340 
	C309.977386,167.314377 311.983337,153.893326 308.874329,144.861984 
	C305.293701,134.460602 293.609192,126.464943 284.349518,128.073898 
	C270.659454,130.452698 260.829712,136.155487 260.738678,160.000000 
	C258.317810,160.000000 255.883118,160.000000 253.448410,160.000000 
	C251.147308,160.000000 248.846191,160.000000 245.852081,160.000000 
	C247.146667,149.154312 245.194733,139.245667 236.103836,133.020538 
	C231.808655,130.079376 225.667877,127.872505 220.635574,128.329697 
	C204.340988,129.810120 197.327377,139.837204 197.130417,153.684418 
	C196.924515,168.159409 208.225250,176.307999 228.621246,177.146545 
	C228.621246,192.519257 228.621246,207.916306 228.621246,223.994278 
	C225.543427,223.994278 222.248108,224.266022 219.043243,223.846573 
	C217.925095,223.700226 216.412857,221.990692 216.127899,220.753784 
	C212.972061,207.055161 205.150848,195.986313 196.719208,185.166626 
	C186.152069,171.606613 174.649063,158.675507 169.764984,141.490158 
	C162.200317,114.872810 166.589874,90.577179 183.059708,68.469810 
	C197.432404,49.177425 216.978409,37.656937 240.427734,34.269379 
	C267.194336,30.402601 291.251587,37.620029 312.187744,55.493149 
	C329.117523,69.946045 338.305878,88.304161 340.783997,109.793640 
	C343.154205,130.347443 337.378723,149.342072 325.255707,166.178802 
	C316.783539,177.945145 307.625519,189.234756 299.525085,201.244049 
	C295.787964,206.784470 293.128845,213.340897 291.364197,219.813751 
	C290.317200,223.654282 288.843597,224.199005 285.701416,224.025177 
	C283.381378,223.896851 281.048523,223.999969 278.361450,223.999969 
	C278.361450,208.452469 278.361450,193.053955 278.361450,178.054291 
	C284.519684,176.910950 290.703857,175.762787 297.177734,174.354340 
z"/>
<path fill="none" opacity="1.000000" stroke="none" 
	d="
M260.000000,385.000000 
	C283.940704,385.000000 307.381409,385.000000 331.148438,385.000000 
	C324.304199,416.918274 317.576813,448.291748 310.820129,479.801819 
	C272.578644,479.801819 234.490570,479.801819 196.458099,479.801819 
	C189.693054,448.236420 182.971039,416.871826 176.140320,385.000000 
	C203.990463,385.000000 231.745224,385.000000 260.000000,385.000000 
M257.512360,400.000000 
	C253.683945,400.001343 249.841400,399.794830 246.030533,400.054138 
	C240.687042,400.417755 236.859283,404.454559 237.008179,409.142120 
	C237.143311,413.395844 240.507874,416.950226 244.814621,416.969391 
	C261.293121,417.042694 277.772369,417.052338 294.250732,416.964600 
	C298.877838,416.939972 301.792206,413.816711 301.999390,409.203278 
	C302.258087,403.442902 298.493317,400.067657 291.465424,400.019958 
	C280.480042,399.945374 269.493805,400.000061 257.512360,400.000000 
M220.597153,413.894043 
	C223.145782,408.076080 222.464127,402.798767 218.045837,401.810089 
	C212.835861,400.644257 207.087997,400.509888 201.861679,401.480591 
	C199.837479,401.856567 197.529343,406.412262 197.347565,409.194305 
	C197.201965,411.422394 199.664215,415.349091 201.687134,415.903931 
	C207.742096,417.564545 214.233215,418.838867 220.597153,413.894043 
z"/>
<path fill="none" opacity="1.000000" stroke="none" 
	d="
M203.000000,353.000000 
	C254.433273,353.000000 305.366547,353.000000 356.649780,353.000000 
	C356.649780,357.917023 356.649780,362.641449 356.649780,367.685669 
	C288.053833,367.685669 219.377487,367.685669 150.350372,367.685669 
	C150.350372,363.083557 150.350372,358.361542 150.350372,353.000000 
	C167.675537,353.000000 185.087769,353.000000 203.000000,353.000000 
z"/>
<path fill="none" opacity="1.000000" stroke="none" 
	d="
M356.260193,282.647217 
	C349.371368,272.732330 344.965088,262.259583 343.999878,250.484375 
	C342.859192,236.568588 347.859955,224.432007 355.995758,213.762619 
	C362.514587,205.213821 370.296295,197.628052 377.517548,189.614914 
	C378.151459,189.805267 378.785370,189.995621 379.419281,190.185974 
	C381.278320,197.920609 383.741730,205.568100 384.872070,213.407776 
	C387.309509,230.313629 384.195038,246.541916 375.738251,261.311066 
	C371.485809,268.737640 365.626862,275.259186 360.296082,282.033905 
	C359.659088,282.843445 357.772186,282.669403 356.260193,282.647217 
z"/>
<path fill="none" opacity="1.000000" stroke="none" 
	d="
M156.020065,274.860260 
	C153.812134,278.248413 151.668198,281.260406 149.309250,284.574493 
	C122.557281,257.083557 114.788918,226.104904 128.409439,190.477676 
	C152.415237,208.800217 175.446732,238.332794 156.020065,274.860260 
z"/>
<path fill="none" opacity="1.000000" stroke="none" 
	d="
M230.000000,286.775879 
	C230.000000,282.024323 230.000000,277.742767 230.000000,273.236725 
	C245.793625,273.236725 261.158752,273.236725 277.784760,273.236725 
	C276.935089,280.766632 277.020721,288.257996 275.034637,295.152588 
	C273.256561,301.324890 267.568512,304.121277 260.883972,304.014343 
	C256.230469,303.939880 251.574783,304.000580 246.920059,303.999908 
	C236.625443,303.998474 230.138718,297.575073 230.000000,286.775879 
z"/>
<path fill="none" opacity="1.000000" stroke="none" 
	d="
M235.000183,256.000000 
	C227.873352,256.000000 221.246490,256.000000 214.311295,256.000000 
	C214.311295,251.008987 214.311295,246.291489 214.311295,241.283157 
	C240.346573,241.283157 266.361023,241.283157 292.688263,241.283157 
	C292.688263,245.991501 292.688263,250.709549 292.688263,256.000000 
	C273.614838,256.000000 254.557480,256.000000 235.000183,256.000000 
z"/>
<path fill="none" opacity="1.000000" stroke="none" 
	d="
M253.982071,224.000000 
	C251.200363,224.000000 248.900726,224.000000 246.301987,224.000000 
	C246.301987,208.352386 246.301987,192.996460 246.301987,177.319321 
	C250.972534,177.319321 255.687439,177.319321 260.703735,177.319321 
	C260.703735,192.659363 260.703735,208.015152 260.703735,224.000000 
	C258.644745,224.000000 256.554443,224.000000 253.982071,224.000000 
z"/>
<path fill="none" opacity="1.000000" stroke="none" 
	d="
M418.464966,274.243164 
	C414.339417,288.780579 401.026611,296.752319 387.359894,297.988892 
	C381.498962,298.519135 375.626678,298.923828 369.584778,298.790436 
	C382.930786,284.819702 399.426147,277.296173 418.464966,274.243164 
z"/>
<path fill="none" opacity="1.000000" stroke="none" 
	d="
M112.064606,280.964966 
	C121.354912,286.410309 130.253937,291.822357 139.152969,297.234406 
	C115.338417,301.260437 94.520096,293.141602 87.887672,273.012695 
	C96.401047,275.847076 104.037186,278.389404 112.064606,280.964966 
z"/>
<path fill="none" opacity="1.000000" stroke="none" 
	d="
M255.900452,321.000000 
	C257.818359,321.076996 259.256439,321.153992 260.829590,321.238220 
	C260.829590,326.142609 260.829590,330.727661 260.829590,335.656921 
	C256.093414,335.656921 251.391495,335.656921 246.340149,335.656921 
	C246.340149,331.086548 246.340149,326.382965 246.340149,321.000000 
	C249.273544,321.000000 252.347061,321.000000 255.900452,321.000000 
z"/>
<path fill="none" opacity="1.000000" stroke="none" 
	d="
M285.605621,159.999771 
	C283.011841,159.999954 280.861572,159.999954 277.686310,159.999954 
	C278.156464,156.451920 278.059570,152.983856 279.170044,149.959030 
	C280.330383,146.798416 283.387939,144.644592 286.866791,145.570465 
	C290.635315,146.573441 293.564331,149.206848 292.934143,153.687851 
	C292.403503,157.460922 290.048615,159.754410 285.605621,159.999771 
z"/>
<path fill="none" opacity="1.000000" stroke="none" 
	d="
M216.293457,157.774597 
	C213.584671,153.981934 213.214508,150.433212 216.918396,147.746109 
	C218.629120,146.505020 221.681335,145.206375 223.122345,145.930298 
	C225.507431,147.128494 227.681778,149.670166 228.808777,152.160034 
	C229.730820,154.197098 228.996521,156.983887 228.996521,160.798843 
	C224.497757,159.803894 220.540207,158.928619 216.293457,157.774597 
z"/>
<path fill="color" opacity="1.000000" stroke="none" 
	d="
M258.010132,400.000000 
	C269.493805,400.000061 280.480042,399.945374 291.465424,400.019958 
	C298.493317,400.067657 302.258087,403.442902 301.999390,409.203278 
	C301.792206,413.816711 298.877838,416.939972 294.250732,416.964600 
	C277.772369,417.052338 261.293121,417.042694 244.814621,416.969391 
	C240.507874,416.950226 237.143311,413.395844 237.008179,409.142120 
	C236.859283,404.454559 240.687042,400.417755 246.030533,400.054138 
	C249.841400,399.794830 253.683945,400.001343 258.010132,400.000000 
z"/>
<path fill="color" opacity="1.000000" stroke="none" 
	d="
M220.305542,414.182007 
	C214.233215,418.838867 207.742096,417.564545 201.687134,415.903931 
	C199.664215,415.349091 197.201965,411.422394 197.347565,409.194305 
	C197.529343,406.412262 199.837479,401.856567 201.861679,401.480591 
	C207.087997,400.509888 212.835861,400.644257 218.045837,401.810089 
	C222.464127,402.798767 223.145782,408.076080 220.305542,414.182007 
z"/>
</svg>