<?xml version="1.0" standalone="no"?>
<!DOCTYPE svg PUBLIC "-//W3C//DTD SVG 20010904//EN"
 "http://www.w3.org/TR/2001/REC-SVG-20010904/DTD/svg10.dtd">
<svg version="1.0" xmlns="http://www.w3.org/2000/svg"
 width="512.000000pt" height="512.000000pt" viewBox="0 0 512.000000 512.000000"
 preserveAspectRatio="xMidYMid meet">

<g transform="translate(0.000000,512.000000) scale(0.100000,-0.100000)"
fill="#000000" stroke="none">
<path d="M2423 5091 c-66 -24 -133 -71 -175 -120 -18 -22 -213 -351 -434 -733
l-400 -693 -570 -5 c-629 -6 -604 -3 -701 -72 -58 -41 -119 -133 -133 -201 -7
-36 -10 -289 -8 -787 l3 -735 27 -57 c35 -76 98 -142 167 -175 54 -27 62 -28
249 -31 l192 -4 0 -423 0 -423 -37 -7 c-82 -15 -175 -93 -215 -180 -17 -38
-23 -69 -23 -125 0 -95 33 -168 106 -234 83 -75 92 -76 510 -76 344 0 372 1
422 20 63 24 136 92 169 159 33 68 33 196 -1 265 -43 87 -128 155 -218 174
l-38 8 0 144 0 145 1240 0 1240 0 0 -143 0 -143 -52 -18 c-147 -50 -234 -180
-220 -329 9 -107 78 -206 176 -254 45 -23 54 -23 425 -26 433 -3 440 -2 525
74 73 66 106 139 106 234 0 56 -6 87 -23 125 -41 90 -135 167 -219 181 l-43 7
0 423 0 422 198 4 c192 3 198 4 253 31 69 33 132 99 167 175 l27 57 0 765 0
765 -22 47 c-26 55 -93 131 -143 163 -81 50 -70 49 -675 55 l-569 5 -401 695
c-262 453 -418 713 -448 746 -29 32 -71 63 -114 84 -61 31 -78 35 -168 37 -79
3 -111 -1 -152 -16z m234 -202 c24 -12 54 -35 67 -53 13 -17 203 -341 421
-720 316 -546 399 -697 403 -732 10 -93 -39 -183 -121 -223 -43 -21 -52 -21
-867 -21 -815 0 -824 0 -867 21 -82 40 -131 130 -121 223 4 35 87 186 403 732
218 379 408 703 421 720 53 71 173 95 261 53z m-1287 -1573 c0 -22 26 -113 45
-158 6 -16 -24 -18 -475 -20 l-482 -3 -29 -33 -29 -33 2 -570 3 -571 28 -24
28 -24 2099 0 2099 0 28 24 28 24 3 571 2 570 -29 33 -29 33 -482 3 c-451 2
-481 4 -475 20 19 45 45 136 45 158 l0 25 534 -3 c522 -3 535 -3 562 -24 15
-11 37 -33 48 -48 21 -27 21 -36 21 -759 l0 -732 -24 -34 c-46 -64 -1 -61
-996 -61 -1001 0 -962 2 -989 -62 -18 -42 -11 -80 21 -110 l25 -23 421 -5 422
-5 3 -172 2 -173 -1245 0 -1245 0 2 173 3 172 422 5 421 5 26 24 c28 27 35 85
15 123 -26 49 -15 48 -987 48 l-909 0 -33 23 c-18 12 -41 38 -51 57 -18 33
-19 73 -19 742 0 476 3 716 11 735 14 37 47 73 84 89 24 10 139 13 553 14
l522 0 0 -24z m-390 -380 c0 -2 -85 -152 -190 -332 l-190 -328 0 332 0 332
190 0 c105 0 190 -2 190 -4z m680 -2 c0 -3 -111 -196 -246 -430 l-246 -424
-225 0 -224 0 33 58 c18 33 130 226 248 430 l215 372 223 0 c122 0 222 -3 222
-6z m683 -27 c-10 -19 -121 -212 -248 -430 l-230 -397 -233 0 -234 0 20 33
c11 17 120 205 242 417 123 212 227 391 233 398 7 9 67 12 238 12 l229 0 -17
-33z m695 24 c-1 -5 -113 -198 -247 -430 l-245 -421 -224 0 c-123 0 -222 4
-220 9 2 4 113 198 248 430 l244 421 224 0 c123 0 222 -4 220 -9z m675 -39
c-16 -27 -127 -220 -248 -430 l-220 -381 -233 -1 -233 0 33 58 c18 32 130 226
248 430 l215 372 233 0 232 0 -27 -48z m675 -10 c-18 -32 -130 -226 -248 -430
l-215 -372 -222 0 c-123 0 -223 2 -223 5 0 3 111 197 246 430 l246 425 225 0
224 0 -33 -58z m132 -492 l0 -310 -181 0 c-99 0 -179 4 -177 9 6 15 352 611
355 611 2 0 3 -139 3 -310z m-3410 -1330 l0 -420 -135 0 -135 0 0 420 0 420
135 0 135 0 0 -420z m3160 0 l0 -420 -135 0 -135 0 0 420 0 420 135 0 135 0 0
-420z m-2958 -630 c20 -6 49 -25 63 -42 38 -44 31 -110 -14 -150 l-31 -28
-348 0 c-299 0 -351 2 -370 16 -27 19 -52 65 -52 97 0 37 41 91 80 104 45 15
618 18 672 3z m3168 -3 c39 -13 80 -67 80 -104 0 -32 -25 -78 -52 -97 -19 -14
-71 -16 -370 -16 l-348 0 -31 28 c-45 40 -52 106 -14 150 15 17 41 36 58 41
49 14 635 12 677 -2z"/>
<path d="M2494 4496 l-34 -34 0 -309 c0 -342 0 -341 66 -369 29 -12 39 -12 68
0 66 28 66 27 66 369 l0 309 -34 34 c-24 25 -43 34 -66 34 -23 0 -41 -9 -66
-34z"/>
<path d="M2533 3588 c-108 -28 -86 -189 25 -188 40 1 59 11 85 50 49 71 -23
161 -110 138z"/>
<path d="M2513 1665 c-61 -26 -74 -106 -24 -156 39 -38 87 -39 130 -3 25 21
31 33 31 66 0 52 -14 77 -55 94 -41 17 -42 17 -82 -1z"/>
</g>
</svg>
