<?xml version="1.0" standalone="no"?>
<!DOCTYPE svg PUBLIC "-//W3C//DTD SVG 20010904//EN"
 "http://www.w3.org/TR/2001/REC-SVG-20010904/DTD/svg10.dtd">
<svg version="1.0" xmlns="http://www.w3.org/2000/svg"
 width="512.000000pt" height="512.000000pt" viewBox="0 0 512.000000 512.000000"
 preserveAspectRatio="xMidYMid meet">

<g transform="translate(0.000000,512.000000) scale(0.100000,-0.100000)"
fill="#000000" stroke="none">
<path d="M2330 5110 c-379 -34 -776 -166 -1104 -367 -333 -205 -649 -522 -854
-858 -364 -596 -465 -1325 -278 -2006 219 -797 840 -1460 1626 -1734 615 -214
1275 -184 1874 86 61 28 150 73 197 100 48 27 91 49 97 49 5 0 281 -83 612
-185 331 -102 606 -185 610 -183 4 2 -72 288 -168 637 l-174 633 75 152 c280
563 346 1163 194 1761 -159 623 -563 1177 -1119 1531 -121 77 -342 186 -481
238 -336 124 -744 178 -1107 146z m435 -300 c518 -48 1016 -281 1385 -649 400
-400 627 -907 665 -1486 9 -133 -10 -381 -41 -534 -46 -227 -154 -509 -279
-721 -25 -42 -45 -85 -45 -95 0 -10 52 -206 115 -436 63 -230 115 -422 115
-427 0 -5 -189 49 -420 120 l-420 129 -98 -59 c-481 -293 -975 -400 -1502
-326 -736 103 -1381 574 -1711 1249 -374 767 -285 1660 235 2355 91 122 304
335 426 426 282 211 593 352 925 418 219 44 431 56 650 36z"/>
<path d="M2410 4204 c-356 -41 -606 -139 -871 -341 -335 -255 -557 -632 -625
-1063 -22 -144 -15 -423 16 -565 69 -324 221 -607 450 -836 252 -253 574 -414
935 -470 188 -29 469 -11 665 43 597 164 1049 647 1180 1263 28 128 38 397 20
528 -73 552 -406 1023 -899 1271 -145 73 -289 120 -466 152 -80 14 -338 26
-405 18z m222 -323 c113 -72 232 -314 301 -613 l25 -108 -399 0 -399 0 6 28
c36 155 79 303 109 377 84 209 195 343 286 345 14 0 46 -13 71 -29z m-582 -86
c-5 -13 -19 -44 -31 -67 -47 -92 -123 -345 -149 -500 l-12 -68 -259 0 c-142 0
-259 2 -259 4 0 2 16 33 36 68 128 227 350 431 594 547 47 22 86 41 87 41 1 0
-2 -11 -7 -25z m1128 -46 c177 -94 333 -228 446 -382 50 -68 126 -190 126
-203 0 -2 -110 -4 -244 -4 l-245 0 -10 58 c-35 185 -99 390 -178 570 -9 20 5
15 105 -39z m-1363 -1189 l0 -300 -292 0 -291 0 -12 48 c-27 109 -23 433 6
535 5 16 28 17 297 17 l292 0 0 -300z m1188 193 c4 -58 7 -145 7 -193 0 -48
-3 -135 -7 -193 l-6 -107 -437 0 -437 0 -7 77 c-3 42 -6 142 -6 223 0 81 3
181 6 223 l7 77 437 0 437 0 6 -107z m862 85 c29 -137 34 -352 10 -488 -8 -47
-15 -86 -15 -87 0 -2 -125 -3 -277 -3 l-278 0 0 300 0 300 277 0 278 0 5 -22z
m-1981 -1009 c31 -153 99 -367 145 -458 18 -35 31 -65 29 -67 -8 -7 -216 103
-283 151 -148 103 -341 320 -414 463 l-21 42 258 0 259 0 27 -131z m1066 114
c0 -9 -14 -71 -30 -139 -77 -311 -212 -550 -331 -586 -138 -41 -321 253 -408
655 l-19 87 394 0 c360 0 394 -1 394 -17z m768 -44 c-84 -154 -268 -353 -418
-454 -75 -50 -221 -128 -227 -121 -2 2 8 30 23 62 56 126 118 332 154 517 l11
57 245 0 245 0 -33 -61z"/>
</g>
</svg>
