<svg xmlns="http://www.w3.org/2000/svg" viewBox="0 0 74.53 63.45"><defs><style>.cls-1{fill:#0f131b;}</style></defs><g id="Capa_2" data-name="Capa 2"><g id="Capa_1-2" data-name="Capa 1"><path class="cls-1" d="M0,3.85c.1-.26.2-.53.31-.79A4.7,4.7,0,0,1,4.83,0c3.25,0,6.5,0,9.74,0h3.71c1.07,0,1.57.34,1.58,1.06s-.52,1.11-1.62,1.11H4.93a2.51,2.51,0,0,0-2.66,1.9,2.18,2.18,0,0,0-.08.57c0,2.69,0,5.37,0,8.06a2.86,2.86,0,0,0,.05.32H72.32V5a2.53,2.53,0,0,0-2.75-2.76H24.7a7.39,7.39,0,0,1-.94,0,1,1,0,0,1-1-1.08,1,1,0,0,1,1-1c.24,0,.48,0,.73,0H69.25c2.81,0,4.26,1.05,5.17,3.74,0,0,.06.07.1.1v44c-.39.45-.79.87-1.47.6s-.71-.83-.71-1.44q0-15.39,0-30.78V15.3H2.21v43a2.6,2.6,0,0,0,3,2.95q32.12,0,64.22,0c2,0,3-1,3-3,0-1.77,0-3.53,0-5.3,0-.61,0-1.19.68-1.46s1.09.12,1.51.54v7.41c-.12.36-.22.74-.37,1.08-1,2.13-2.7,2.93-5,2.93H5.38a9.94,9.94,0,0,1-1.09,0,4.62,4.62,0,0,1-4-3.08L0,59.59Q0,31.75,0,3.85Z"/><path class="cls-1" d="M31.05,36a3.66,3.66,0,0,1,4-2.51c1.5,0,3,0,4.51,0a3.67,3.67,0,0,1,3.93,2.56,8.74,8.74,0,0,0,2.66-4.6,9.09,9.09,0,0,0-17.52-4.77c0,.11-.06.23-.11.35a1.09,1.09,0,1,1-2.08-.66,10.44,10.44,0,0,1,2.68-4.67c3.28-3.24,7.19-4.35,11.6-2.93a10.73,10.73,0,0,1,7.71,9.13,11.25,11.25,0,0,1-22,4.61,1.8,1.8,0,0,1,.2-1.39c.52-.69,1.54-.32,1.81.62a9.47,9.47,0,0,0,2.05,3.79,3.06,3.06,0,0,0,.36.36C30.89,36,31,36,31.05,36Zm6.23-.33H36.7c-.82,0-1.65,0-2.46,0-.65,0-1,.49-1.1,1.15s.32.86.81,1.05a9.07,9.07,0,0,0,6.72-.06,1,1,0,0,0,.46-1.57,2,2,0,0,0-1.23-.58A22.91,22.91,0,0,0,37.28,35.7Z"/><path class="cls-1" d="M37.25,49.59H28.31a2.57,2.57,0,0,1-2.84-2.83c0-.41,0-.82,0-1.23a2.53,2.53,0,0,1,2.62-2.61c2.64,0,5.28,0,7.93,0H46.2A2.57,2.57,0,0,1,49,45.75c0,.41,0,.82,0,1.23a2.54,2.54,0,0,1-2.62,2.61Zm-3.76-2.18H45.4c1.59,0,1.41.17,1.46-1.43,0-.7-.2-.91-.9-.91-3.94,0-7.89,0-11.83,0-.21,0-.42,0-.63,0C33.49,45.91,33.49,46.62,33.49,47.41Zm-2.22-2.32c-1.09,0-2.13,0-3.15,0-.17,0-.47.43-.44.62.1.56-.47,1.45.38,1.62a17.27,17.27,0,0,0,3.22,0C31.27,46.6,31.27,45.9,31.27,45.09Z"/><path class="cls-1" d="M37.24,51.63h8.94A2.57,2.57,0,0,1,49,54.46c0,.41,0,.82,0,1.23A2.54,2.54,0,0,1,46.4,58.3c-2.4,0-4.8,0-7.2,0H28.29a2.58,2.58,0,0,1-2.84-2.83c0-.41,0-.82,0-1.23a2.53,2.53,0,0,1,2.62-2.61C31.13,51.62,34.19,51.63,37.24,51.63Zm-3.75,4.5H45.37c1.64,0,1.43.19,1.48-1.47,0-.68-.21-.87-.87-.86-4,0-7.94,0-11.9,0l-.59,0Zm-2.21-2.31c-1.11,0-2.21,0-3.31,0-.09,0-.26.13-.26.2,0,.62,0,1.24,0,1.86,0,.08.21.22.33.22,1.07,0,2.15,0,3.24,0v-2.3Z"/><path class="cls-1" d="M37.23,31.29A4.36,4.36,0,1,1,41.61,27,4.37,4.37,0,0,1,37.23,31.29ZM39.42,27a2.18,2.18,0,1,0-2.18,2.15A2.21,2.21,0,0,0,39.42,27Z"/><path class="cls-1" d="M51.84,4.37H65.15a3.14,3.14,0,0,1,3,1.86,3.07,3.07,0,0,1-.38,3.41,2.81,2.81,0,0,1-2.22,1.21c-2.76,0-5.53.05-8.29,0A1.06,1.06,0,0,1,56.17,9.8a1.09,1.09,0,0,1,1.21-1.07h7.13a5.3,5.3,0,0,0,.8,0,1.07,1.07,0,0,0-.06-2.14,5.61,5.61,0,0,0-.58,0H38.93c-1.15,0-1.65.31-1.67,1s.53,1.13,1.68,1.13H51.59a5.3,5.3,0,0,1,.8,0,1,1,0,0,1,.89,1,1,1,0,0,1-.84,1.1,2.81,2.81,0,0,1-.65.06H38.7a3.31,3.31,0,0,1-3.55-2.58,3.23,3.23,0,0,1,2.74-3.9,7.39,7.39,0,0,1,.94,0Z"/><path class="cls-1" d="M12.68,7.67a3.23,3.23,0,0,1-3.32,3.21,3.26,3.26,0,1,1,3.32-3.21Zm-2.19,0a1,1,0,0,0-1-1.07A1.07,1.07,0,1,0,9.38,8.7,1.06,1.06,0,0,0,10.49,7.63Z"/><path class="cls-1" d="M21.4,7.65a3.23,3.23,0,0,1-3.3,3.23,3.26,3.26,0,1,1,0-6.51A3.23,3.23,0,0,1,21.4,7.65Zm-3.24,1a1.07,1.07,0,1,0,0-2.14,1.09,1.09,0,0,0-1.07,1.05A1.11,1.11,0,0,0,18.16,8.7Z"/><path class="cls-1" d="M30.13,7.67a3.23,3.23,0,0,1-3.31,3.22,3.26,3.26,0,1,1,.08-6.51A3.22,3.22,0,0,1,30.13,7.67ZM26.88,6.56a1.07,1.07,0,1,0,0,2.14,1.05,1.05,0,0,0,1.08-1.1A1,1,0,0,0,26.88,6.56Z"/></g></g></svg>