<svg version="1.1" id="Layer_1" xmlns="http://www.w3.org/2000/svg" xmlns:xlink="http://www.w3.org/1999/xlink" x="0px" y="0px"
	 width="100%" viewBox="0 0 512 512" enable-background="new 0 0 512 512" xml:space="preserve">
<path fill="none" opacity="1.000000" stroke="none" 
	d="
M65.000000,513.000000 
	C56.979099,513.000000 48.958202,513.000000 40.130116,512.753418 
	C40.313751,511.400513 41.382488,510.353699 42.281937,509.177460 
	C46.160015,504.105774 43.156563,494.940765 37.206692,495.214539 
	C25.129539,495.770355 12.656781,492.051910 1.000000,498.000000 
	C1.000000,411.979095 1.000000,325.958221 1.261941,239.130890 
	C5.511906,246.121674 11.287989,251.906647 19.693512,254.924835 
	C59.148178,269.091949 98.576317,283.332947 138.029755,297.503479 
	C162.861877,306.422516 187.681366,315.379883 212.589752,324.081818 
	C222.342728,327.489075 234.344650,322.864349 240.011444,314.913971 
	C247.492813,304.417786 247.009018,289.799500 237.162460,280.547607 
	C236.354965,279.788879 235.790253,278.034821 236.056610,276.982025 
	C239.430542,263.646515 243.650894,250.485382 246.263962,237.009979 
	C248.290451,226.559525 253.162827,220.184280 262.818268,215.243896 
	C280.137634,206.382095 296.581757,195.809708 313.186554,186.072464 
	C323.936188,192.101059 334.837219,193.892426 346.487091,190.309952 
	C347.907837,189.873077 349.808197,190.147995 351.233612,190.721298 
	C357.296082,193.159607 363.109192,192.441406 368.756470,189.639236 
	C372.970856,187.548050 377.052460,185.190018 381.202026,182.967331 
	C390.955017,177.743225 393.835785,166.838058 388.758820,157.392731 
	C383.756561,148.086288 378.897491,138.701202 373.783783,129.456741 
	C367.648468,118.365486 361.466003,107.294052 355.000275,96.394196 
	C351.216522,90.015610 343.261780,87.190552 336.324799,90.030571 
	C329.596954,92.784973 323.008362,96.082870 316.826080,99.899353 
	C312.225830,102.739212 308.961670,107.040131 308.872314,113.093056 
	C308.852448,114.438766 307.547241,116.119942 306.361816,117.035538 
	C299.521393,122.319000 295.959045,129.667465 293.015106,137.454834 
	C292.699860,138.288742 292.526031,139.684143 291.988617,139.849243 
	C284.846771,142.043259 277.651642,144.063904 270.249329,146.191147 
	C272.982483,135.562576 275.581421,125.698769 278.032166,115.798271 
	C278.932129,112.162636 280.614075,110.328583 284.730774,109.866714 
	C295.308258,108.679993 306.076965,94.432648 304.945251,83.908936 
	C303.624786,71.629990 296.929932,63.439056 285.550659,59.282177 
	C254.840134,48.063541 224.052689,37.055298 193.286865,25.988279 
	C172.726257,18.592253 152.141083,11.264160 131.608002,3.792742 
	C130.541183,3.404557 129.860474,1.955275 129.000000,1.000000 
	C256.927704,1.000000 384.855438,1.000000 513.000000,1.000000 
	C513.000000,131.020813 513.000000,261.041748 512.763794,391.868469 
	C510.835876,391.390900 509.242310,389.945557 507.436371,388.850433 
	C495.818054,381.805084 483.620605,376.743195 469.911835,374.730530 
	C453.850891,372.372528 440.197540,375.988739 428.460602,387.063446 
	C425.793884,389.579681 423.249878,392.225952 420.000580,395.457672 
	C420.000580,383.549957 420.028168,372.886322 419.979645,362.223053 
	C419.968628,359.799805 420.300781,358.330292 423.352844,357.917908 
	C443.378448,355.212250 459.407837,344.954010 471.610016,329.482086 
	C485.594604,311.750244 490.711151,290.956635 486.851044,268.656006 
	C483.093964,246.950821 471.730652,229.457855 453.372650,217.254761 
	C436.340271,205.932831 417.281250,202.574631 397.091797,205.997452 
	C372.099976,210.234421 353.928253,224.109085 342.082092,246.121552 
	C333.377228,262.296967 331.145508,279.627106 334.937714,297.770966 
	C338.854187,316.509399 348.497498,331.471161 363.502991,343.140015 
	C374.500519,351.692139 386.880157,356.929504 400.795044,358.446533 
	C400.795044,370.544312 400.795044,382.453430 400.795044,395.549988 
	C399.030792,393.236053 398.046051,391.628204 396.750153,390.331146 
	C395.375092,388.954926 393.581909,388.000519 392.182251,386.644196 
	C378.715027,373.593719 362.466919,371.843140 345.163666,375.465820 
	C333.988556,377.805511 323.669220,382.531036 313.908234,388.506531 
	C308.786407,391.642029 306.523926,395.721527 308.196594,401.306427 
	C313.492371,418.988342 321.113739,435.298126 334.770874,448.407593 
	C347.485748,460.612518 362.590210,463.138947 379.022919,460.374176 
	C386.396423,459.133575 393.540771,456.530792 400.689087,454.573517 
	C400.689087,467.886505 400.689087,481.305817 400.689087,494.657013 
	C332.990204,494.657013 265.602814,494.657013 198.347519,494.657013 
	C198.347519,480.943726 198.347519,467.576019 198.347519,453.966614 
	C210.992935,459.050140 223.479233,462.417053 236.964417,461.074707 
	C250.065552,459.770569 260.699554,453.695587 269.075989,444.181519 
	C279.612457,432.214111 286.120789,417.833710 290.700165,402.621338 
	C292.585632,396.357910 291.274780,391.759308 286.354126,389.180511 
	C278.901184,385.274567 271.412445,381.246796 263.533630,378.387390 
	C251.263229,373.934204 238.457474,371.673615 225.618378,375.906586 
	C208.348785,381.600250 197.252991,394.242828 188.925888,410.400024 
	C183.314026,400.655945 177.416153,391.651794 168.518951,384.853180 
	C160.099106,378.419373 151.112015,374.188324 140.420135,374.001404 
	C122.183876,373.682587 105.988945,379.653839 90.820450,389.442413 
	C86.367188,392.316223 85.028580,395.950165 86.224693,400.253632 
	C91.492020,419.204834 99.741432,436.555023 114.601074,450.101440 
	C123.624641,458.327515 134.785934,461.545105 146.413879,461.694641 
	C153.874084,461.790588 161.407761,459.218872 168.835175,457.521973 
	C172.492996,456.686340 175.984467,455.122559 179.699524,453.836914 
	C179.699524,467.868347 179.699524,481.285675 179.699524,495.000000 
	C177.599335,495.000000 175.790268,495.000000 173.981216,495.000000 
	C139.318863,495.000031 104.656410,495.038818 69.994293,494.948517 
	C65.888512,494.937836 62.491615,496.392639 61.207550,499.992554 
	C59.730534,504.133514 59.739937,508.605652 64.620689,511.246033 
	C64.963181,511.431305 64.883408,512.397156 65.000000,513.000000 
M399.506927,128.090271 
	C399.920410,128.361313 400.307953,128.811462 400.751373,128.875610 
	C405.072113,129.500626 409.859528,126.297302 410.922119,122.130531 
	C411.964203,118.044380 408.735138,112.075783 404.918274,111.033028 
	C400.160645,109.733269 395.929016,111.854065 393.879639,116.565414 
	C391.703857,121.567360 393.190918,125.085594 399.506927,128.090271 
M436.033783,100.062263 
	C436.022552,101.057617 436.098633,102.063065 435.984863,103.046562 
	C435.502197,107.218369 438.124786,109.331764 441.306335,110.955521 
	C444.678162,112.676384 448.228271,112.259537 450.654205,109.620552 
	C452.968658,107.102898 455.303650,103.702888 452.936157,100.083191 
	C451.391754,97.721893 449.166077,94.952682 446.701263,94.234634 
	C442.336792,92.963165 438.285706,94.569832 436.033783,100.062263 
M423.883057,137.046814 
	C423.122589,137.660614 422.305115,138.216415 421.611328,138.898087 
	C418.315674,142.136230 417.940887,147.854340 420.764008,151.245346 
	C423.272003,154.257843 428.814697,154.961823 432.423370,152.862900 
	C435.507568,151.069031 438.178528,145.892487 435.287720,140.669891 
	C433.296692,137.072830 428.994293,135.443634 423.883057,137.046814 
M375.014221,85.482056 
	C374.727264,85.636436 374.456482,85.843170 374.150970,85.937378 
	C369.191711,87.466629 366.789886,90.978561 367.726410,95.355217 
	C368.949219,101.069679 372.099792,103.477570 377.725677,102.997185 
	C382.504791,102.589096 385.054413,99.336258 384.999939,93.716606 
	C384.952881,88.864899 382.527893,86.610855 375.014221,85.482056 
M436.002502,176.595886 
	C432.931122,170.915024 429.429657,169.297424 423.982117,171.042801 
	C420.661896,172.106567 418.373566,176.829987 419.011322,181.303024 
	C419.712097,186.217728 424.487030,189.031158 430.355316,187.986954 
	C434.393585,187.268372 437.356018,181.776535 436.002502,176.595886 
M467.960815,188.003662 
	C466.507568,188.965759 464.832581,189.711868 463.644135,190.931885 
	C460.510986,194.148224 460.746887,200.226822 463.948181,202.971970 
	C468.380310,206.772629 475.567993,206.002975 477.055878,202.189285 
	C478.188690,199.285629 478.632446,195.628479 477.965790,192.620636 
	C476.957306,188.070557 472.747223,187.818436 467.960815,188.003662 
M477.968842,167.154984 
	C478.074280,166.848068 478.184784,166.542770 478.284332,166.233948 
	C479.950317,161.068375 477.999786,155.370239 474.128052,154.088333 
	C468.199554,152.125443 463.002136,154.939911 461.455292,161.098801 
	C460.362579,165.449631 462.935730,168.817245 466.168091,170.290787 
	C469.955872,172.017487 474.537964,172.181000 477.968842,167.154984 
M456.133942,121.373878 
	C455.417419,122.261452 454.541931,123.063614 454.011383,124.051117 
	C451.435883,128.845001 453.215027,134.396851 457.882294,136.388763 
	C463.499359,138.786011 468.630341,136.772217 469.851990,130.891174 
	C470.415741,128.177368 469.796692,124.251083 468.095581,122.250946 
	C465.255066,118.911079 460.881073,119.218643 456.133942,121.373878 
M419.005615,87.624107 
	C419.869415,82.651482 417.788849,78.622833 413.638000,77.230675 
	C409.607697,75.878944 404.630493,77.541763 403.007263,81.164139 
	C401.129700,85.354088 401.098419,89.643280 405.445984,93.009796 
	C409.197113,95.914459 417.240936,95.104156 419.005615,87.624107 
z"/>
<path fill="color" opacity="1.000000" stroke="none" 
	d="
M65.468658,513.000000 
	C64.883408,512.397156 64.963181,511.431305 64.620689,511.246033 
	C59.739937,508.605652 59.730534,504.133514 61.207550,499.992554 
	C62.491615,496.392639 65.888512,494.937836 69.994293,494.948517 
	C104.656410,495.038818 139.318863,495.000031 173.981216,495.000000 
	C175.790268,495.000000 177.599335,495.000000 179.699524,495.000000 
	C179.699524,481.285675 179.699524,467.868347 179.699524,453.836914 
	C175.984467,455.122559 172.492996,456.686340 168.835175,457.521973 
	C161.407761,459.218872 153.874084,461.790588 146.413879,461.694641 
	C134.785934,461.545105 123.624641,458.327515 114.601074,450.101440 
	C99.741432,436.555023 91.492020,419.204834 86.224693,400.253632 
	C85.028580,395.950165 86.367188,392.316223 90.820450,389.442413 
	C105.988945,379.653839 122.183876,373.682587 140.420135,374.001404 
	C151.112015,374.188324 160.099106,378.419373 168.518951,384.853180 
	C177.416153,391.651794 183.314026,400.655945 188.925888,410.400024 
	C197.252991,394.242828 208.348785,381.600250 225.618378,375.906586 
	C238.457474,371.673615 251.263229,373.934204 263.533630,378.387390 
	C271.412445,381.246796 278.901184,385.274567 286.354126,389.180511 
	C291.274780,391.759308 292.585632,396.357910 290.700165,402.621338 
	C286.120789,417.833710 279.612457,432.214111 269.075989,444.181519 
	C260.699554,453.695587 250.065552,459.770569 236.964417,461.074707 
	C223.479233,462.417053 210.992935,459.050140 198.347519,453.966614 
	C198.347519,467.576019 198.347519,480.943726 198.347519,494.657013 
	C265.602814,494.657013 332.990204,494.657013 400.689087,494.657013 
	C400.689087,481.305817 400.689087,467.886505 400.689087,454.573517 
	C393.540771,456.530792 386.396423,459.133575 379.022919,460.374176 
	C362.590210,463.138947 347.485748,460.612518 334.770874,448.407593 
	C321.113739,435.298126 313.492371,418.988342 308.196594,401.306427 
	C306.523926,395.721527 308.786407,391.642029 313.908234,388.506531 
	C323.669220,382.531036 333.988556,377.805511 345.163666,375.465820 
	C362.466919,371.843140 378.715027,373.593719 392.182251,386.644196 
	C393.581909,388.000519 395.375092,388.954926 396.750153,390.331146 
	C398.046051,391.628204 399.030792,393.236053 400.795044,395.549988 
	C400.795044,382.453430 400.795044,370.544312 400.795044,358.446533 
	C386.880157,356.929504 374.500519,351.692139 363.502991,343.140015 
	C348.497498,331.471161 338.854187,316.509399 334.937714,297.770966 
	C331.145508,279.627106 333.377228,262.296967 342.082092,246.121552 
	C353.928253,224.109085 372.099976,210.234421 397.091797,205.997452 
	C417.281250,202.574631 436.340271,205.932831 453.372650,217.254761 
	C471.730652,229.457855 483.093964,246.950821 486.851044,268.656006 
	C490.711151,290.956635 485.594604,311.750244 471.610016,329.482086 
	C459.407837,344.954010 443.378448,355.212250 423.352844,357.917908 
	C420.300781,358.330292 419.968628,359.799805 419.979645,362.223053 
	C420.028168,372.886322 420.000580,383.549957 420.000580,395.457672 
	C423.249878,392.225952 425.793884,389.579681 428.460602,387.063446 
	C440.197540,375.988739 453.850891,372.372528 469.911835,374.730530 
	C483.620605,376.743195 495.818054,381.805084 507.436371,388.850433 
	C509.242310,389.945557 510.835876,391.390900 512.763794,392.337128 
	C513.000000,396.356903 513.000000,400.713806 512.719482,405.195709 
	C511.953003,406.116821 511.327728,406.859924 511.001892,407.716919 
	C504.887512,423.797699 497.679352,439.137451 484.030914,450.516266 
	C471.593201,460.885742 457.281189,463.214844 441.930237,460.364410 
	C434.583160,459.000122 427.442230,456.525482 420.327576,454.586334 
	C420.327576,467.931366 420.327576,481.345398 420.327576,495.000000 
	C443.962616,495.000000 467.271454,494.909637 490.578888,495.051910 
	C498.137909,495.098053 506.008514,493.396759 513.000000,498.000000 
	C513.000000,502.995270 513.000000,507.990570 513.000000,512.992920 
	C363.979095,513.000000 214.958206,513.000000 65.468658,513.000000 
M434.414276,336.003052 
	C442.286041,332.298431 449.186829,327.319458 454.853546,320.658386 
	C467.453308,305.847778 472.637207,289.057709 468.360626,269.808655 
	C465.414886,256.549835 458.909149,245.385941 448.270203,236.763870 
	C432.974121,224.367584 415.778564,220.053284 396.570923,224.861862 
	C380.225769,228.953827 367.860626,238.376709 359.417847,253.031570 
	C350.349518,268.772278 349.156952,285.263794 355.114044,302.139191 
	C360.994415,318.797241 372.799500,330.306580 388.991974,336.889984 
	C403.814850,342.916504 418.872070,342.912567 434.414276,336.003052 
M270.350372,405.144073 
	C270.824310,404.189331 271.298279,403.234558 271.899750,402.022919 
	C263.432220,397.619659 255.064026,394.281860 245.723602,392.706512 
	C235.267120,390.942902 226.737961,393.630585 219.151581,400.386444 
	C209.099991,409.337677 203.772110,421.171539 199.195694,433.850647 
	C204.002502,435.944519 208.668945,438.240875 213.519928,440.039459 
	C226.640442,444.904175 239.773376,445.673248 251.080444,436.153381 
	C260.471100,428.247101 266.253357,417.536133 270.350372,405.144073 
M452.492767,443.977783 
	C453.912079,443.652130 455.322510,443.094147 456.752167,443.039459 
	C464.630707,442.738220 470.819397,438.701996 475.918457,433.385529 
	C483.668243,425.305298 488.494934,415.271637 492.424225,404.886749 
	C492.858093,403.740082 491.754608,400.929688 490.689117,400.475922 
	C484.455139,397.821045 478.149963,395.155640 471.625000,393.399994 
	C459.368622,390.102203 448.546265,392.725067 439.341125,402.040985 
	C430.513916,410.974396 425.294098,421.820221 420.894196,433.883942 
	C426.842865,436.364594 432.705292,439.147156 438.805511,441.234924 
	C442.903015,442.637238 447.337189,443.055695 452.492767,443.977783 
M109.006561,400.490662 
	C106.740387,401.329254 105.488907,402.338562 106.900368,405.142242 
	C108.931114,409.175995 109.847580,413.893463 112.377129,417.527283 
	C117.307938,424.610657 122.357391,431.862885 128.611847,437.701813 
	C134.707642,443.392578 142.991867,444.194214 151.385025,443.067169 
	C161.014511,441.774170 169.796417,438.491699 179.128143,433.088715 
	C174.272522,424.437134 170.091522,415.851501 164.866989,407.956451 
	C157.798157,397.274445 147.591736,390.578491 134.501495,392.298340 
	C126.021828,393.412415 117.916168,397.373230 109.006561,400.490662 
M333.484772,415.986359 
	C337.447418,421.927765 340.845734,428.364105 345.513580,433.687103 
	C351.540222,440.559601 360.027100,444.175842 369.014923,443.710632 
	C380.069611,443.138519 390.572662,439.541107 400.722229,432.638184 
	C396.186340,424.550720 392.074768,416.089386 386.925781,408.315155 
	C379.927429,397.748535 370.008392,390.783356 356.881592,392.265961 
	C348.657593,393.194794 340.694580,396.607635 332.674652,399.099731 
	C328.360413,400.440308 326.532990,402.828339 329.599884,407.343414 
	C331.204437,409.705658 331.933197,412.662750 333.484772,415.986359 
z"/>
<path fill="color" opacity="1.000000" stroke="none" 
	d="
M128.531464,1.000000 
	C129.860474,1.955275 130.541183,3.404557 131.608002,3.792742 
	C152.141083,11.264160 172.726257,18.592253 193.286865,25.988279 
	C224.052689,37.055298 254.840134,48.063541 285.550659,59.282177 
	C296.929932,63.439056 303.624786,71.629990 304.945251,83.908936 
	C306.076965,94.432648 295.308258,108.679993 284.730774,109.866714 
	C280.614075,110.328583 278.932129,112.162636 278.032166,115.798271 
	C275.581421,125.698769 272.982483,135.562576 270.249329,146.191147 
	C277.651642,144.063904 284.846771,142.043259 291.988617,139.849243 
	C292.526031,139.684143 292.699860,138.288742 293.015106,137.454834 
	C295.959045,129.667465 299.521393,122.319000 306.361816,117.035538 
	C307.547241,116.119942 308.852448,114.438766 308.872314,113.093056 
	C308.961670,107.040131 312.225830,102.739212 316.826080,99.899353 
	C323.008362,96.082870 329.596954,92.784973 336.324799,90.030571 
	C343.261780,87.190552 351.216522,90.015610 355.000275,96.394196 
	C361.466003,107.294052 367.648468,118.365486 373.783783,129.456741 
	C378.897491,138.701202 383.756561,148.086288 388.758820,157.392731 
	C393.835785,166.838058 390.955017,177.743225 381.202026,182.967331 
	C377.052460,185.190018 372.970856,187.548050 368.756470,189.639236 
	C363.109192,192.441406 357.296082,193.159607 351.233612,190.721298 
	C349.808197,190.147995 347.907837,189.873077 346.487091,190.309952 
	C334.837219,193.892426 323.936188,192.101059 313.186554,186.072464 
	C296.581757,195.809708 280.137634,206.382095 262.818268,215.243896 
	C253.162827,220.184280 248.290451,226.559525 246.263962,237.009979 
	C243.650894,250.485382 239.430542,263.646515 236.056610,276.982025 
	C235.790253,278.034821 236.354965,279.788879 237.162460,280.547607 
	C247.009018,289.799500 247.492813,304.417786 240.011444,314.913971 
	C234.344650,322.864349 222.342728,327.489075 212.589752,324.081818 
	C187.681366,315.379883 162.861877,306.422516 138.029755,297.503479 
	C98.576317,283.332947 59.148178,269.091949 19.693512,254.924835 
	C11.287989,251.906647 5.511906,246.121674 1.261941,238.662231 
	C1.000000,232.645599 1.000000,226.291214 1.248190,219.804672 
	C2.165422,218.775757 2.853141,217.892242 3.500530,216.980087 
	C8.474889,209.971329 14.115655,204.159012 23.605314,203.834427 
	C25.194225,203.780090 27.325237,201.891586 28.153315,200.302246 
	C31.973579,192.969940 35.421513,185.443649 39.197609,177.581558 
	C37.730999,176.385422 36.127041,175.288452 34.777302,173.937500 
	C30.457552,169.613876 25.657885,165.616653 22.081167,160.733368 
	C12.563858,147.739441 9.017868,133.117065 9.803720,116.856071 
	C10.783464,96.583038 16.568634,78.308395 28.032621,61.657818 
	C40.151524,44.056030 60.861622,35.455349 81.400436,43.153553 
	C87.178207,45.319138 92.268768,49.318184 97.674492,52.476234 
	C99.459160,49.219193 100.399689,46.379028 97.240608,42.053619 
	C87.665543,28.943455 91.969955,10.675168 106.224030,3.259773 
	C106.998329,2.856958 107.416214,1.769022 108.000000,1.000002 
	C114.687645,1.000000 121.375282,1.000000 128.531464,1.000000 
M92.984512,225.481628 
	C112.312920,232.479324 131.644348,239.468704 150.968964,246.476837 
	C173.467392,254.635956 195.959854,262.811523 218.704208,271.070435 
	C233.135544,216.111679 247.519897,161.331818 261.917328,106.502129 
	C213.595871,89.005508 165.428024,71.564507 117.098061,54.064808 
	C92.998878,105.531494 69.076454,156.620697 44.895851,208.261261 
	C60.935688,213.947937 76.615089,219.506821 92.984512,225.481628 
M58.690830,59.993187 
	C53.847992,63.498096 47.783508,66.093674 44.378185,70.668602 
	C31.105701,88.499680 25.396276,108.545143 28.897511,130.983704 
	C30.853357,143.518265 37.459984,152.634369 47.171043,160.305893 
	C55.721752,141.952927 64.069962,124.028770 72.423492,106.107086 
	C77.362427,95.511070 82.351997,84.938194 87.194946,74.298546 
	C87.743195,73.094063 88.059555,71.228645 87.513863,70.169067 
	C82.969406,61.345173 69.689407,56.577690 58.690830,59.993187 
M87.538742,243.001099 
	C77.836258,239.387253 68.165382,235.685425 58.422398,232.184280 
	C48.686451,228.685684 38.943779,225.178589 29.073444,222.093033 
	C24.348209,220.615891 20.181526,223.057922 19.042940,227.006042 
	C17.834475,231.196472 20.108564,235.287979 24.790569,237.005234 
	C39.821278,242.518250 54.880096,247.954544 69.918358,253.447006 
	C103.191422,265.599426 136.443558,277.809357 169.734970,289.911255 
	C184.630905,295.326141 199.634705,300.444794 214.519730,305.888824 
	C220.134872,307.942505 224.444016,306.797150 226.440964,302.076691 
	C228.262894,297.769897 225.788528,292.894775 220.620422,291.030029 
	C197.346832,282.632538 174.032104,274.348877 150.769272,265.921814 
	C129.934372,258.374268 109.147888,250.693039 87.538742,243.001099 
M247.509323,65.000320 
	C227.716827,57.863007 207.921600,50.733250 188.132568,43.586353 
	C166.214691,35.670624 144.306915,27.726942 122.383705,19.826046 
	C118.478783,18.418749 114.898666,18.142454 111.932732,22.086491 
	C108.212944,27.032997 111.247223,32.522205 117.495377,34.785664 
	C136.667603,41.730999 155.875168,48.578884 175.044083,55.533291 
	C208.056396,67.510033 241.052856,79.530457 274.048248,91.553741 
	C279.263336,93.454086 284.189667,91.797020 285.846497,87.470268 
	C287.581146,82.940292 285.394104,79.142662 279.641907,76.941277 
	C269.212341,72.949814 258.758209,69.022491 247.509323,65.000320 
M358.383606,172.879883 
	C359.622803,172.725372 361.027466,172.893524 362.071381,172.358215 
	C365.777435,170.457825 369.360443,168.317490 372.980011,166.273758 
	C362.262238,146.650696 351.628632,127.181694 340.896301,107.531967 
	C335.878510,110.322853 331.518799,112.747711 327.071014,115.221573 
	C337.473419,134.368256 347.757629,153.297394 358.383606,172.879883 
M265.372162,192.940552 
	C276.544983,186.386871 287.717834,179.833206 298.688751,173.397964 
	C297.094086,169.159073 295.656952,164.877701 293.801575,160.786011 
	C293.418365,159.940887 291.308228,159.165634 290.281982,159.439026 
	C282.637787,161.475540 275.035706,163.689087 267.500092,166.096405 
	C266.155884,166.525803 264.495544,167.923813 264.145966,169.194931 
	C261.637085,178.317139 259.429199,187.522110 256.876862,197.692642 
	C259.997986,195.827560 262.314178,194.443497 265.372162,192.940552 
M336.061554,170.372833 
	C329.477722,158.194153 322.893860,146.015472 316.232147,133.692703 
	C308.684631,141.481277 308.273041,150.557785 312.695007,160.162186 
	C316.557892,168.552322 327.127502,174.994934 337.612305,173.717148 
	C337.232269,172.790436 336.865143,171.895218 336.061554,170.372833 
z"/>
<path fill="none" opacity="1.000000" stroke="none" 
	d="
M107.531342,1.000002 
	C107.416214,1.769022 106.998329,2.856958 106.224030,3.259773 
	C91.969955,10.675168 87.665543,28.943455 97.240608,42.053619 
	C100.399689,46.379028 99.459160,49.219193 97.674492,52.476234 
	C92.268768,49.318184 87.178207,45.319138 81.400436,43.153553 
	C60.861622,35.455349 40.151524,44.056030 28.032621,61.657818 
	C16.568634,78.308395 10.783464,96.583038 9.803720,116.856071 
	C9.017868,133.117065 12.563858,147.739441 22.081167,160.733368 
	C25.657885,165.616653 30.457552,169.613876 34.777302,173.937500 
	C36.127041,175.288452 37.730999,176.385422 39.197609,177.581558 
	C35.421513,185.443649 31.973579,192.969940 28.153315,200.302246 
	C27.325237,201.891586 25.194225,203.780090 23.605314,203.834427 
	C14.115655,204.159012 8.474889,209.971329 3.500530,216.980087 
	C2.853141,217.892242 2.165422,218.775757 1.248190,219.336273 
	C1.000000,146.431244 1.000000,73.862503 1.000000,1.000000 
	C36.353683,1.000000 71.708183,1.000000 107.531342,1.000002 
z"/>
<path fill="none" opacity="1.000000" stroke="none" 
	d="
M513.000000,497.531342 
	C506.008514,493.396759 498.137909,495.098053 490.578888,495.051910 
	C467.271454,494.909637 443.962616,495.000000 420.327576,495.000000 
	C420.327576,481.345398 420.327576,467.931366 420.327576,454.586334 
	C427.442230,456.525482 434.583160,459.000122 441.930237,460.364410 
	C457.281189,463.214844 471.593201,460.885742 484.030914,450.516266 
	C497.679352,439.137451 504.887512,423.797699 511.001892,407.716919 
	C511.327728,406.859924 511.953003,406.116821 512.719482,405.660339 
	C513.000000,436.354218 513.000000,466.708466 513.000000,497.531342 
z"/>
<path fill="color" opacity="1.000000" stroke="none" 
	d="
M1.000000,498.472656 
	C12.656781,492.051910 25.129539,495.770355 37.206692,495.214539 
	C43.156563,494.940765 46.160015,504.105774 42.281937,509.177460 
	C41.382488,510.353699 40.313751,511.400513 39.661465,512.753418 
	C27.108208,513.000000 14.216413,513.000000 1.000000,513.000000 
	C1.000000,508.320099 1.000000,503.632721 1.000000,498.472656 
z"/>
<path fill="color" opacity="1.000000" stroke="none" 
	d="
M399.111176,128.048462 
	C393.190918,125.085594 391.703857,121.567360 393.879639,116.565414 
	C395.929016,111.854065 400.160645,109.733269 404.918274,111.033028 
	C408.735138,112.075783 411.964203,118.044380 410.922119,122.130531 
	C409.859528,126.297302 405.072113,129.500626 400.751373,128.875610 
	C400.307953,128.811462 399.920410,128.361313 399.111176,128.048462 
z"/>
<path fill="color" opacity="1.000000" stroke="none" 
	d="
M436.142090,99.663193 
	C438.285706,94.569832 442.336792,92.963165 446.701263,94.234634 
	C449.166077,94.952682 451.391754,97.721893 452.936157,100.083191 
	C455.303650,103.702888 452.968658,107.102898 450.654205,109.620552 
	C448.228271,112.259537 444.678162,112.676384 441.306335,110.955521 
	C438.124786,109.331764 435.502197,107.218369 435.984863,103.046562 
	C436.098633,102.063065 436.022552,101.057617 436.142090,99.663193 
z"/>
<path fill="color" opacity="1.000000" stroke="none" 
	d="
M424.279297,137.020844 
	C428.994293,135.443634 433.296692,137.072830 435.287720,140.669891 
	C438.178528,145.892487 435.507568,151.069031 432.423370,152.862900 
	C428.814697,154.961823 423.272003,154.257843 420.764008,151.245346 
	C417.940887,147.854340 418.315674,142.136230 421.611328,138.898087 
	C422.305115,138.216415 423.122589,137.660614 424.279297,137.020844 
z"/>
<path fill="color" opacity="1.000000" stroke="none" 
	d="
M375.354553,85.274826 
	C382.527893,86.610855 384.952881,88.864899 384.999939,93.716606 
	C385.054413,99.336258 382.504791,102.589096 377.725677,102.997185 
	C372.099792,103.477570 368.949219,101.069679 367.726410,95.355217 
	C366.789886,90.978561 369.191711,87.466629 374.150970,85.937378 
	C374.456482,85.843170 374.727264,85.636436 375.354553,85.274826 
z"/>
<path fill="color" opacity="1.000000" stroke="none" 
	d="
M436.038513,176.990173 
	C437.356018,181.776535 434.393585,187.268372 430.355316,187.986954 
	C424.487030,189.031158 419.712097,186.217728 419.011322,181.303024 
	C418.373566,176.829987 420.661896,172.106567 423.982117,171.042801 
	C429.429657,169.297424 432.931122,170.915024 436.038513,176.990173 
z"/>
<path fill="color" opacity="1.000000" stroke="none" 
	d="
M468.376221,188.002075 
	C472.747223,187.818436 476.957306,188.070557 477.965790,192.620636 
	C478.632446,195.628479 478.188690,199.285629 477.055878,202.189285 
	C475.567993,206.002975 468.380310,206.772629 463.948181,202.971970 
	C460.746887,200.226822 460.510986,194.148224 463.644135,190.931885 
	C464.832581,189.711868 466.507568,188.965759 468.376221,188.002075 
z"/>
<path fill="color" opacity="1.000000" stroke="none" 
	d="
M477.787445,167.520630 
	C474.537964,172.181000 469.955872,172.017487 466.168091,170.290787 
	C462.935730,168.817245 460.362579,165.449631 461.455292,161.098801 
	C463.002136,154.939911 468.199554,152.125443 474.128052,154.088333 
	C477.999786,155.370239 479.950317,161.068375 478.284332,166.233948 
	C478.184784,166.542770 478.074280,166.848068 477.787445,167.520630 
z"/>
<path fill="color" opacity="1.000000" stroke="none" 
	d="
M456.503754,121.199554 
	C460.881073,119.218643 465.255066,118.911079 468.095581,122.250946 
	C469.796692,124.251083 470.415741,128.177368 469.851990,130.891174 
	C468.630341,136.772217 463.499359,138.786011 457.882294,136.388763 
	C453.215027,134.396851 451.435883,128.845001 454.011383,124.051117 
	C454.541931,123.063614 455.417419,122.261452 456.503754,121.199554 
z"/>
<path fill="color" opacity="1.000000" stroke="none" 
	d="
M418.999512,88.017181 
	C417.240936,95.104156 409.197113,95.914459 405.445984,93.009796 
	C401.098419,89.643280 401.129700,85.354088 403.007263,81.164139 
	C404.630493,77.541763 409.607697,75.878944 413.638000,77.230675 
	C417.788849,78.622833 419.869415,82.651482 418.999512,88.017181 
z"/>
<path fill="none" opacity="1.000000" stroke="none" 
	d="
M434.022888,336.038422 
	C418.872070,342.912567 403.814850,342.916504 388.991974,336.889984 
	C372.799500,330.306580 360.994415,318.797241 355.114044,302.139191 
	C349.156952,285.263794 350.349518,268.772278 359.417847,253.031570 
	C367.860626,238.376709 380.225769,228.953827 396.570923,224.861862 
	C415.778564,220.053284 432.974121,224.367584 448.270203,236.763870 
	C458.909149,245.385941 465.414886,256.549835 468.360626,269.808655 
	C472.637207,289.057709 467.453308,305.847778 454.853546,320.658386 
	C449.186829,327.319458 442.286041,332.298431 434.022888,336.038422 
M440.600220,285.104462 
	C432.565918,277.159332 422.917206,273.393646 411.609222,272.830505 
	C406.906219,272.596313 402.190369,270.772308 397.701813,269.082916 
	C396.129913,268.491272 394.145111,266.025482 394.291107,264.616852 
	C394.461487,262.973206 396.470551,260.926392 398.181152,260.138214 
	C405.847870,256.605774 413.621246,255.502365 421.600861,259.747711 
	C424.082764,261.068146 427.313660,262.150909 429.941040,261.727020 
	C433.117279,261.214600 436.687622,259.613556 436.963928,255.331238 
	C437.243195,251.002289 437.567505,246.647766 432.253357,244.637589 
	C427.895142,242.989014 423.649323,241.043289 419.225861,239.175278 
	C418.720825,233.893463 415.411011,229.742599 410.771057,230.194962 
	C406.672394,230.594574 402.398590,231.743500 401.803223,237.433105 
	C401.666687,238.738007 399.342743,240.128082 397.746033,240.903885 
	C393.859009,242.792496 389.342224,243.692123 385.906799,246.147934 
	C373.585999,254.955460 372.218292,271.102844 383.147766,281.342896 
	C390.581329,288.307587 400.331146,290.624054 410.606140,291.187897 
	C415.258118,291.443176 420.033081,293.225525 424.321442,295.234589 
	C428.270935,297.084900 428.169312,300.965790 424.306976,302.842010 
	C418.803986,305.515228 413.126740,308.110229 406.666565,306.040466 
	C402.830994,304.811584 398.950684,303.722931 395.097656,302.547699 
	C390.314270,301.088654 386.217499,302.795410 384.512085,306.984253 
	C382.645721,311.568359 384.124146,316.944458 388.200592,318.972992 
	C392.517853,321.121460 397.045105,322.848053 401.688385,324.848450 
	C402.257141,329.568237 405.504486,333.343811 409.832611,333.941193 
	C413.664551,334.470093 417.352509,331.293091 419.112671,326.497375 
	C419.588562,325.200836 421.074860,323.976990 422.396393,323.349121 
	C425.448578,321.898956 428.723633,320.927155 431.838074,319.597046 
	C444.315216,314.268188 449.238495,298.182831 440.600220,285.104462 
z"/>
<path fill="none" opacity="1.000000" stroke="none" 
	d="
M270.197937,405.494812 
	C266.253357,417.536133 260.471100,428.247101 251.080444,436.153381 
	C239.773376,445.673248 226.640442,444.904175 213.519928,440.039459 
	C208.668945,438.240875 204.002502,435.944519 199.195694,433.850647 
	C203.772110,421.171539 209.099991,409.337677 219.151581,400.386444 
	C226.737961,393.630585 235.267120,390.942902 245.723602,392.706512 
	C255.064026,394.281860 263.432220,397.619659 271.899750,402.022919 
	C271.298279,403.234558 270.824310,404.189331 270.197937,405.494812 
z"/>
<path fill="none" opacity="1.000000" stroke="none" 
	d="
M452.056763,443.946075 
	C447.337189,443.055695 442.903015,442.637238 438.805511,441.234924 
	C432.705292,439.147156 426.842865,436.364594 420.894196,433.883942 
	C425.294098,421.820221 430.513916,410.974396 439.341125,402.040985 
	C448.546265,392.725067 459.368622,390.102203 471.625000,393.399994 
	C478.149963,395.155640 484.455139,397.821045 490.689117,400.475922 
	C491.754608,400.929688 492.858093,403.740082 492.424225,404.886749 
	C488.494934,415.271637 483.668243,425.305298 475.918457,433.385529 
	C470.819397,438.701996 464.630707,442.738220 456.752167,443.039459 
	C455.322510,443.094147 453.912079,443.652130 452.056763,443.946075 
z"/>
<path fill="none" opacity="1.000000" stroke="none" 
	d="
M109.324738,400.274536 
	C117.916168,397.373230 126.021828,393.412415 134.501495,392.298340 
	C147.591736,390.578491 157.798157,397.274445 164.866989,407.956451 
	C170.091522,415.851501 174.272522,424.437134 179.128143,433.088715 
	C169.796417,438.491699 161.014511,441.774170 151.385025,443.067169 
	C142.991867,444.194214 134.707642,443.392578 128.611847,437.701813 
	C122.357391,431.862885 117.307938,424.610657 112.377129,417.527283 
	C109.847580,413.893463 108.931114,409.175995 106.900368,405.142242 
	C105.488907,402.338562 106.740387,401.329254 109.324738,400.274536 
z"/>
<path fill="none" opacity="1.000000" stroke="none" 
	d="
M333.271118,415.668762 
	C331.933197,412.662750 331.204437,409.705658 329.599884,407.343414 
	C326.532990,402.828339 328.360413,400.440308 332.674652,399.099731 
	C340.694580,396.607635 348.657593,393.194794 356.881592,392.265961 
	C370.008392,390.783356 379.927429,397.748535 386.925781,408.315155 
	C392.074768,416.089386 396.186340,424.550720 400.722229,432.638184 
	C390.572662,439.541107 380.069611,443.138519 369.014923,443.710632 
	C360.027100,444.175842 351.540222,440.559601 345.513580,433.687103 
	C340.845734,428.364105 337.447418,421.927765 333.271118,415.668762 
z"/>
<path fill="none" opacity="1.000000" stroke="none" 
	d="
M92.639511,225.273682 
	C76.615089,219.506821 60.935688,213.947937 44.895851,208.261261 
	C69.076454,156.620697 92.998878,105.531494 117.098061,54.064808 
	C165.428024,71.564507 213.595871,89.005508 261.917328,106.502129 
	C247.519897,161.331818 233.135544,216.111679 218.704208,271.070435 
	C195.959854,262.811523 173.467392,254.635956 150.968964,246.476837 
	C131.644348,239.468704 112.312920,232.479324 92.639511,225.273682 
z"/>
<path fill="none" opacity="1.000000" stroke="none" 
	d="
M59.097809,59.950241 
	C69.689407,56.577690 82.969406,61.345173 87.513863,70.169067 
	C88.059555,71.228645 87.743195,73.094063 87.194946,74.298546 
	C82.351997,84.938194 77.362427,95.511070 72.423492,106.107086 
	C64.069962,124.028770 55.721752,141.952927 47.171043,160.305893 
	C37.459984,152.634369 30.853357,143.518265 28.897511,130.983704 
	C25.396276,108.545143 31.105701,88.499680 44.378185,70.668602 
	C47.783508,66.093674 53.847992,63.498096 59.097809,59.950241 
z"/>
<path fill="none" opacity="1.000000" stroke="none" 
	d="
M87.939392,243.035950 
	C109.147888,250.693039 129.934372,258.374268 150.769272,265.921814 
	C174.032104,274.348877 197.346832,282.632538 220.620422,291.030029 
	C225.788528,292.894775 228.262894,297.769897 226.440964,302.076691 
	C224.444016,306.797150 220.134872,307.942505 214.519730,305.888824 
	C199.634705,300.444794 184.630905,295.326141 169.734970,289.911255 
	C136.443558,277.809357 103.191422,265.599426 69.918358,253.447006 
	C54.880096,247.954544 39.821278,242.518250 24.790569,237.005234 
	C20.108564,235.287979 17.834475,231.196472 19.042940,227.006042 
	C20.181526,223.057922 24.348209,220.615891 29.073444,222.093033 
	C38.943779,225.178589 48.686451,228.685684 58.422398,232.184280 
	C68.165382,235.685425 77.836258,239.387253 87.939392,243.035950 
z"/>
<path fill="none" opacity="1.000000" stroke="none" 
	d="
M247.911835,65.034363 
	C258.758209,69.022491 269.212341,72.949814 279.641907,76.941277 
	C285.394104,79.142662 287.581146,82.940292 285.846497,87.470268 
	C284.189667,91.797020 279.263336,93.454086 274.048248,91.553741 
	C241.052856,79.530457 208.056396,67.510033 175.044083,55.533291 
	C155.875168,48.578884 136.667603,41.730999 117.495377,34.785664 
	C111.247223,32.522205 108.212944,27.032997 111.932732,22.086491 
	C114.898666,18.142454 118.478783,18.418749 122.383705,19.826046 
	C144.306915,27.726942 166.214691,35.670624 188.132568,43.586353 
	C207.921600,50.733250 227.716827,57.863007 247.911835,65.034363 
z"/>
<path fill="none" opacity="1.000000" stroke="none" 
	d="
M358.212708,172.553223 
	C347.757629,153.297394 337.473419,134.368256 327.071014,115.221573 
	C331.518799,112.747711 335.878510,110.322853 340.896301,107.531967 
	C351.628632,127.181694 362.262238,146.650696 372.980011,166.273758 
	C369.360443,168.317490 365.777435,170.457825 362.071381,172.358215 
	C361.027466,172.893524 359.622803,172.725372 358.212708,172.553223 
z"/>
<path fill="none" opacity="1.000000" stroke="none" 
	d="
M265.001251,193.000000 
	C262.314178,194.443497 259.997986,195.827560 256.876862,197.692642 
	C259.429199,187.522110 261.637085,178.317139 264.145966,169.194931 
	C264.495544,167.923813 266.155884,166.525803 267.500092,166.096405 
	C275.035706,163.689087 282.637787,161.475540 290.281982,159.439026 
	C291.308228,159.165634 293.418365,159.940887 293.801575,160.786011 
	C295.656952,164.877701 297.094086,169.159073 298.688751,173.397964 
	C287.717834,179.833206 276.544983,186.386871 265.001251,193.000000 
z"/>
<path fill="none" opacity="1.000000" stroke="none" 
	d="
M336.279785,170.686432 
	C336.865143,171.895218 337.232269,172.790436 337.612305,173.717148 
	C327.127502,174.994934 316.557892,168.552322 312.695007,160.162186 
	C308.273041,150.557785 308.684631,141.481277 316.232147,133.692703 
	C322.893860,146.015472 329.477722,158.194153 336.279785,170.686432 
z"/>
<path fill="color" opacity="1.000000" stroke="none" 
	d="
M440.779114,285.434082 
	C449.238495,298.182831 444.315216,314.268188 431.838074,319.597046 
	C428.723633,320.927155 425.448578,321.898956 422.396393,323.349121 
	C421.074860,323.976990 419.588562,325.200836 419.112671,326.497375 
	C417.352509,331.293091 413.664551,334.470093 409.832611,333.941193 
	C405.504486,333.343811 402.257141,329.568237 401.688385,324.848450 
	C397.045105,322.848053 392.517853,321.121460 388.200592,318.972992 
	C384.124146,316.944458 382.645721,311.568359 384.512085,306.984253 
	C386.217499,302.795410 390.314270,301.088654 395.097656,302.547699 
	C398.950684,303.722931 402.830994,304.811584 406.666565,306.040466 
	C413.126740,308.110229 418.803986,305.515228 424.306976,302.842010 
	C428.169312,300.965790 428.270935,297.084900 424.321442,295.234589 
	C420.033081,293.225525 415.258118,291.443176 410.606140,291.187897 
	C400.331146,290.624054 390.581329,288.307587 383.147766,281.342896 
	C372.218292,271.102844 373.585999,254.955460 385.906799,246.147934 
	C389.342224,243.692123 393.859009,242.792496 397.746033,240.903885 
	C399.342743,240.128082 401.666687,238.738007 401.803223,237.433105 
	C402.398590,231.743500 406.672394,230.594574 410.771057,230.194962 
	C415.411011,229.742599 418.720825,233.893463 419.225861,239.175278 
	C423.649323,241.043289 427.895142,242.989014 432.253357,244.637589 
	C437.567505,246.647766 437.243195,251.002289 436.963928,255.331238 
	C436.687622,259.613556 433.117279,261.214600 429.941040,261.727020 
	C427.313660,262.150909 424.082764,261.068146 421.600861,259.747711 
	C413.621246,255.502365 405.847870,256.605774 398.181152,260.138214 
	C396.470551,260.926392 394.461487,262.973206 394.291107,264.616852 
	C394.145111,266.025482 396.129913,268.491272 397.701813,269.082916 
	C402.190369,270.772308 406.906219,272.596313 411.609222,272.830505 
	C422.917206,273.393646 432.565918,277.159332 440.779114,285.434082 
z"/>
</svg>