<svg xmlns="http://www.w3.org/2000/svg" width="238.536" height="514.5" viewBox="0 0 238.536 514.5"><path d="M298.245,466.934a139.931,139.931,0,0,0-4.344-13.577L184.384,104.789,73.776,453.357l-4.851,15.185A118.136,118.136,0,0,0,64.581,500a82.656,82.656,0,0,0,2.153,20.093,118.722,118.722,0,0,0,234.209,0A82.64,82.64,0,0,0,303.1,500,110.991,110.991,0,0,0,298.245,466.934ZM183.839,578.594a79.014,79.014,0,0,1-78.6-78.6,74.223,74.223,0,0,1,1.646-19.519h0l28.169-89.443,49.343-155.052,48.8,155.052,28.169,89.443h0a75.081,75.081,0,0,1,1.1,19.519,79.014,79.014,0,0,1-78.6,78.6Z" transform="translate(-64.571 -104.789)" fill="#4fe0b3"/></svg>