<?xml version="1.0" standalone="no"?>
<!DOCTYPE svg PUBLIC "-//W3C//DTD SVG 20010904//EN"
 "http://www.w3.org/TR/2001/REC-SVG-20010904/DTD/svg10.dtd">
<svg version="1.0" xmlns="http://www.w3.org/2000/svg"
 width="512.000000pt" height="512.000000pt" viewBox="0 0 512.000000 512.000000"
 preserveAspectRatio="xMidYMid meet">

<g transform="translate(0.000000,512.000000) scale(0.100000,-0.100000)"
fill="#000000" stroke="none">
<path d="M3074 5106 c-22 -10 -73 -69 -167 -193 l-136 -178 -201 -69 c-111
-38 -212 -78 -226 -88 -48 -39 -53 -62 -60 -299 l-7 -224 -114 -164 c-141
-203 -146 -213 -140 -267 3 -34 29 -78 131 -225 l126 -182 1 -126 c0 -69 4
-175 8 -234 10 -152 13 -154 280 -246 112 -39 205 -72 206 -73 49 -75 266
-345 289 -359 17 -10 48 -19 69 -19 21 0 129 27 239 60 l200 61 198 -61 c109
-33 216 -60 237 -60 21 0 52 9 70 19 17 11 89 96 160 189 l128 170 206 72
c209 73 238 88 268 147 6 13 14 113 18 244 l6 222 120 171 c127 182 137 200
137 247 0 41 -12 62 -143 250 l-114 164 -7 225 c-7 246 -12 265 -72 305 -17
11 -117 49 -223 85 l-192 65 -136 179 c-138 181 -165 206 -227 206 -13 0 -113
-27 -222 -60 -109 -33 -205 -60 -213 -60 -8 0 -104 27 -213 60 -211 63 -235
67 -284 46z m305 -366 c90 -28 176 -50 191 -50 15 0 102 23 193 50 91 28 170
50 176 50 6 0 60 -65 122 -145 61 -80 121 -152 132 -160 12 -8 96 -40 187 -71
91 -31 168 -62 172 -68 4 -6 8 -89 8 -184 0 -122 4 -182 13 -205 8 -18 57 -94
110 -170 54 -76 97 -143 97 -149 0 -6 -45 -75 -100 -153 -55 -79 -104 -155
-110 -170 -5 -14 -10 -104 -10 -198 0 -95 -4 -178 -8 -185 -5 -7 -73 -35 -153
-62 -226 -79 -208 -66 -328 -224 -58 -77 -110 -146 -116 -153 -8 -10 -49 0
-189 42 -99 30 -187 55 -196 55 -10 0 -98 -25 -196 -55 -141 -43 -181 -52
-189 -42 -5 7 -58 76 -117 153 -120 159 -94 142 -338 228 l-145 51 -5 195 c-3
107 -9 202 -14 210 -5 8 -54 79 -108 156 -54 78 -98 146 -98 152 0 6 43 73 97
149 53 76 102 152 110 170 9 23 13 83 13 205 0 95 4 178 8 184 4 6 82 36 174
68 91 32 176 64 187 72 11 8 70 80 131 159 61 80 116 145 123 145 7 0 86 -23
176 -50z"/>
<path d="M3434 4425 c-99 -18 -135 -30 -237 -83 -164 -84 -308 -246 -373 -422
-79 -210 -70 -426 26 -626 79 -163 204 -291 365 -369 134 -66 196 -80 355 -80
151 0 239 19 353 76 203 101 367 304 422 518 100 392 -119 808 -501 950 -70
27 -210 51 -283 50 -31 0 -88 -7 -127 -14z m237 -299 c152 -33 280 -133 345
-271 95 -199 59 -413 -95 -565 -104 -103 -214 -150 -351 -150 -318 0 -564 311
-485 614 49 188 195 331 379 371 80 18 127 18 207 1z"/>
<path d="M1610 4903 c-142 -15 -340 -73 -459 -133 -186 -94 -408 -288 -516
-450 -104 -156 -176 -333 -211 -513 l-17 -88 -81 79 c-88 86 -128 112 -176
112 -50 0 -107 -35 -130 -80 -25 -49 -25 -90 -1 -138 24 -46 424 -444 468
-466 18 -9 46 -16 63 -16 17 0 45 7 63 16 44 22 444 420 468 466 10 21 19 51
19 68 0 50 -35 107 -80 130 -79 40 -129 23 -232 -78 -82 -80 -84 -73 -29 85
116 341 386 589 742 683 68 18 121 23 284 27 170 5 206 8 237 24 43 22 78 80
78 129 0 50 -35 107 -80 130 -35 18 -57 20 -207 18 -92 0 -184 -3 -203 -5z"/>
<path d="M1037 2975 c-527 -182 -905 -621 -1014 -1180 -24 -124 -24 -403 1
-535 101 -552 494 -1004 1025 -1180 174 -58 276 -74 481 -74 142 0 196 4 287
22 401 80 743 304 971 635 72 105 112 185 112 225 0 53 -37 109 -88 134 l-45
21 -111 -23 c-472 -97 -931 67 -1227 438 -295 369 -348 864 -140 1302 17 36
31 81 31 100 0 77 -74 150 -150 149 -19 0 -79 -16 -133 -34z m-153 -502 c-23
-129 -24 -382 -1 -508 91 -494 392 -898 832 -1114 198 -97 381 -146 598 -158
l108 -6 -47 -48 c-109 -111 -285 -217 -456 -274 -446 -149 -919 -36 -1254 299
-194 194 -309 420 -351 691 -17 116 -12 308 12 420 53 248 184 479 366 648 78
73 198 161 206 153 3 -2 -3 -49 -13 -103z"/>
<path d="M4505 1894 c-44 -23 -443 -422 -466 -466 -10 -21 -19 -51 -19 -68 0
-50 35 -107 80 -130 79 -40 129 -23 233 78 81 80 83 73 28 -85 -107 -313 -349
-554 -658 -656 -135 -45 -225 -57 -414 -57 -176 0 -214 -12 -249 -80 -39 -77
-13 -163 62 -201 40 -21 52 -21 248 -16 218 6 284 16 445 68 196 62 360 165
521 324 207 204 336 449 385 731 l11 66 82 -80 c88 -86 128 -112 176 -112 50
0 107 35 130 80 25 49 25 90 1 138 -24 46 -424 444 -468 466 -40 20 -89 20
-128 0z"/>
</g>
</svg>
