<svg xmlns="http://www.w3.org/2000/svg" viewBox="0 0 809.22 522.85"><defs><style>.cls-1{fill:#4fd2a5;}.cls-2{fill:#0f131b;}.cls-3{fill:#fff;}.cls-4{fill:#444c65;}</style></defs><g id="Capa_2" data-name="Capa 2"><g id="Capa_1-2" data-name="Capa 1"><path class="cls-1" d="M552.78,352.62c0-136.43-110.6-247-247-247s-247,110.6-247,247Z"/><path class="cls-2" d="M552.78,354.3H58.72A1.68,1.68,0,0,1,57,352.62c0-137.14,111.57-248.71,248.71-248.71S554.46,215.48,554.46,352.62A1.68,1.68,0,0,1,552.78,354.3ZM60.4,350.94H551.09c-.91-134.51-110.62-243.67-245.34-243.67S61.31,216.43,60.4,350.94Z"/><path class="cls-1" d="M208.29,83.42H75.83a1.68,1.68,0,1,1,0-3.36H208.29c.16,0,16.46-.15,16.46-10.42,0-10.06-9.35-10.41-10.42-10.42H62.39c-4.77,0-13.78-2.88-13.78-13.78s9-13.78,13.78-13.78H164.62a1.68,1.68,0,1,1,0,3.36H62.39C61.33,35,52,35.37,52,45.44s9.35,10.41,10.42,10.42H214.33c4.76,0,13.78,2.88,13.78,13.78S215.15,83.42,208.29,83.42Z"/><path class="cls-1" d="M64.08,81.74a1.68,1.68,0,0,0-1.68-1.68H50.3a1.68,1.68,0,1,0,0,3.36H62.4A1.69,1.69,0,0,0,64.08,81.74Z"/><path class="cls-1" d="M228.11,33.35a1.68,1.68,0,0,0-1.68-1.68H178.05a1.68,1.68,0,0,0,0,3.36h48.38A1.68,1.68,0,0,0,228.11,33.35Z"/><path class="cls-1" d="M592.07,38c0-10.9-9-13.78-13.78-13.78H375.9c-1.07,0-10.42-.35-10.42-10.42S374.84,3.37,375.9,3.36H528.57a1.68,1.68,0,0,0,0-3.36H375.9c-4.77,0-13.78,2.88-13.78,13.78s9,13.78,13.78,13.78H578.29c.43,0,10.42.12,10.42,10.42S572.41,48.4,572.25,48.4H389.34a1.68,1.68,0,0,0,0,3.36H572.25C579.11,51.76,592.07,48.88,592.07,38Z"/><path class="cls-1" d="M377.59,50.08a1.68,1.68,0,0,0-1.68-1.68h-12.1a1.68,1.68,0,0,0,0,3.36h12.1A1.68,1.68,0,0,0,377.59,50.08Z"/><path class="cls-1" d="M592.07,1.69A1.68,1.68,0,0,0,590.39,0H542a1.68,1.68,0,1,0,0,3.36h48.38A1.68,1.68,0,0,0,592.07,1.69Z"/><path class="cls-2" d="M569.89,265.74c0-10.9-9-13.78-13.78-13.78H446.21c-1.07,0-10.42-.35-10.42-10.42s9.35-10.41,10.42-10.42h18.14a1.68,1.68,0,0,0,0-3.36H446.21c-4.77,0-13.78,2.88-13.78,13.78s9,13.78,13.78,13.78h109.9c1.07,0,10.42.35,10.42,10.42,0,10.27-16.3,10.42-16.46,10.42h-73.6a1.68,1.68,0,0,0,0,3.36h73.6C556.92,279.51,569.89,276.63,569.89,265.74Z"/><path class="cls-2" d="M447.89,277.83a1.68,1.68,0,0,0-1.68-1.68h-12.1a1.68,1.68,0,1,0,0,3.36h12.1A1.68,1.68,0,0,0,447.89,277.83Z"/><path class="cls-2" d="M569.89,229.44a1.68,1.68,0,0,0-1.68-1.68h-73.6a1.68,1.68,0,1,0,0,3.36h73.6A1.68,1.68,0,0,0,569.89,229.44Z"/><rect class="cls-2" y="350.94" width="611.48" height="3.36"/><path class="cls-2" d="M227.33,273.3a9.09,9.09,0,0,0,0,18.18"/><path class="cls-2" d="M227.33,293.17a10.77,10.77,0,1,1,0-21.54,1.68,1.68,0,0,1,0,3.36,7.41,7.41,0,0,0,0,14.82,1.68,1.68,0,0,1,0,3.36Z"/><path class="cls-2" d="M383.67,337h5.06s4,0,4.49-3.75a6.77,6.77,0,0,0,0-.81c0-4.54-4.54-25-18.18-34.1a31.44,31.44,0,0,0,4.55-15.92,10.58,10.58,0,0,0-.3-2.27c-2.67-11.71-23.33-43.19-65.63-43.19H231.88s-4.55,0-4.55,4.55v43.19c0,9.09-9.09,11.36-9.09,27.28v20.45s0,4.52,4.5,4.55h9.65a23.53,23.53,0,1,1,44.38,0h106.9Z"/><path class="cls-2" d="M388.73,338.64h-112a1.68,1.68,0,0,1-1.58-2.24,21.62,21.62,0,0,0,1.25-7.3,21.85,21.85,0,1,0-42.55,7,1.64,1.64,0,0,1,.23.85,1.68,1.68,0,0,1-1.68,1.68h-9.68a6.06,6.06,0,0,1-6.18-6.23V312c0-9.55,3.19-14.57,5.75-18.6,1.87-2.94,3.34-5.26,3.34-8.68V241.49a6.07,6.07,0,0,1,6.23-6.24h81.83c43.58,0,64.56,32.62,67.27,44.5a11.86,11.86,0,0,1,.34,2.64,33.32,33.32,0,0,1-4,15.43C390.51,307.67,395,327.71,395,332.4a6.67,6.67,0,0,1-.07,1A6.06,6.06,0,0,1,388.73,338.64Zm-156.86-100a2.7,2.7,0,0,0-2.87,2.87v43.19c0,4.4-1.88,7.36-3.87,10.48-2.45,3.85-5.23,8.22-5.23,16.79v20.45a2.7,2.7,0,0,0,2.83,2.87h7.37a25.21,25.21,0,1,1,48.9,0H388.7a2.74,2.74,0,0,0,2.83-2.29,5.46,5.46,0,0,0,0-.58c0-4.29-4.55-24.12-17.44-32.7a1.69,1.69,0,0,1-.47-2.33,30.06,30.06,0,0,0,4.27-15,8.27,8.27,0,0,0-.26-1.89c-2.55-11.19-22.46-41.89-64-41.89H231.87Z"/><path class="cls-3" d="M277.33,245.21v39.45H242.86V273.3a14.14,14.14,0,0,1,1.15-5c3.35-8.47,13.24-16.61,19.18-23.07Z"/><path class="cls-2" d="M277.33,286.35H242.86a1.68,1.68,0,0,1-1.68-1.68V273.31a15.55,15.55,0,0,1,1.27-5.64c2.65-6.7,9-13,14.59-18.57,1.79-1.78,3.47-3.45,4.92-5a1.67,1.67,0,0,1,1.24-.54h14.15a1.68,1.68,0,0,1,1.68,1.68v39.45A1.71,1.71,0,0,1,277.33,286.35ZM244.54,283h31.11V246.9H263.92c-1.37,1.46-2.9,3-4.51,4.59-5.36,5.33-11.44,11.37-13.83,17.42a12.57,12.57,0,0,0-1,4.4V283Z"/><path class="cls-3" d="M359.17,273.3c0,11.37-11.36,11.37-11.36,11.37H284.15V245.22h29.56C313.93,245.21,359.17,245.21,359.17,273.3Z"/><path class="cls-2" d="M347.81,286.35H284.15a1.68,1.68,0,0,1-1.68-1.68V245.22a1.68,1.68,0,0,1,1.68-1.68h29.56c1.93,0,47.14.34,47.14,29.76C360.85,283.62,352.32,286.35,347.81,286.35Zm-62-3.36h62c1,0,9.68-.34,9.68-9.69,0-26.1-43.34-26.4-43.78-26.4H285.84Z"/><path class="cls-2" d="M278.09,329.09a23.52,23.52,0,1,1-23.51-23.53A23.56,23.56,0,0,1,278.09,329.09Z"/><path class="cls-2" d="M254.56,354.3a25.24,25.24,0,0,1-23.77-16.79,24.92,24.92,0,0,1-1.44-8.42,25.22,25.22,0,1,1,25.21,25.21Zm0-47.06a21.87,21.87,0,0,0-21.85,21.85,21.62,21.62,0,0,0,1.25,7.3,21.85,21.85,0,1,0,20.6-29.15Z"/><circle class="cls-3" cx="254.56" cy="329.09" r="10.08"/><path class="cls-4" d="M254.56,340.85a11.76,11.76,0,1,1,11.76-11.76A11.77,11.77,0,0,1,254.56,340.85Zm0-20.16a8.4,8.4,0,1,0,8.4,8.4A8.41,8.41,0,0,0,254.56,320.69Z"/><circle class="cls-2" cx="361.49" cy="329.09" r="23.53"/><path class="cls-2" d="M361.49,354.3a25.21,25.21,0,1,1,25.21-25.21A25.24,25.24,0,0,1,361.49,354.3Zm0-47.06a21.85,21.85,0,1,0,21.85,21.85A21.87,21.87,0,0,0,361.49,307.24Z"/><circle class="cls-3" cx="361.49" cy="329.09" r="10.08"/><path class="cls-4" d="M361.49,340.85a11.76,11.76,0,1,1,11.76-11.76A11.77,11.77,0,0,1,361.49,340.85Zm0-20.16a8.4,8.4,0,1,0,8.4,8.4A8.41,8.41,0,0,0,361.49,320.69Z"/><path class="cls-1" d="M252.33,284.67c18.19,0,34.1,12.14,34.1,23.51h40.92c13.64,0,25-4.94,25-23.51Z"/><path class="cls-2" d="M327.35,309.86H286.43a1.68,1.68,0,0,1-1.68-1.68c0-9.89-14.46-21.83-32.42-21.83a1.68,1.68,0,1,1,0-3.36h100a1.68,1.68,0,0,1,1.68,1.68C354,301.38,345.06,309.86,327.35,309.86ZM288,306.5h39.34c15.3,0,22.74-6.41,23.29-20.15H269.09C279.35,290.58,287.07,298.29,288,306.5Z"/><polygon class="cls-3" points="306.87 291.69 319.53 291.69 312.72 303.09 319.05 303.09 313.98 314.48 320.32 314.48 307.65 332.21 311.45 318.28 303.85 318.28 309.31 306.89 301.32 306.89 306.87 291.69"/><path class="cls-2" d="M343.26,274.74a8,8,0,0,1-8,8h-6.82a8,8,0,0,1,0-15.92h6.82A8,8,0,0,1,343.26,274.74Z"/><path class="cls-2" d="M335.3,284.38h-6.82a9.65,9.65,0,0,1-9.64-9.64,9.65,9.65,0,0,1,9.64-9.64h6.82a9.64,9.64,0,0,1,0,19.28Zm-6.81-15.92a6.29,6.29,0,0,0-6.28,6.28,6.28,6.28,0,0,0,6.28,6.27h6.82a6.28,6.28,0,0,0,0-12.56h-6.82Z"/><path class="cls-2" d="M335.3,284.38h-3.41a1.68,1.68,0,0,1-1.68-1.68V266.78a1.68,1.68,0,0,1,1.68-1.68h3.41a9.64,9.64,0,0,1,0,19.28ZM333.58,281h1.72a6.28,6.28,0,0,0,0-12.56h-1.72Z"/><path class="cls-3" d="M379.63,282.39a31.43,31.43,0,0,1-4.55,15.91h-4.55a9.09,9.09,0,1,1,0-18.18h8.79A9.46,9.46,0,0,1,379.63,282.39Z"/><path class="cls-3" d="M375.09,300h-4.55a10.77,10.77,0,0,1,0-21.54h8.8a1.69,1.69,0,0,1,1.64,1.3,11.8,11.8,0,0,1,.34,2.65,32.86,32.86,0,0,1-4.83,16.84A1.69,1.69,0,0,1,375.09,300Zm-4.55-18.19a7.41,7.41,0,1,0,0,14.82h3.6A30.31,30.31,0,0,0,378,282.39c0-.18,0-.38,0-.59Z"/><path class="cls-3" d="M117,137.05c0-8.59-3-93.4-6.61-93.4s-6.61,84.8-6.61,93.4,3,15.56,6.61,15.56S117,145.64,117,137.05Z"/><path class="cls-4" d="M110.41,154.29c-5.39,0-8.29-8.88-8.29-17.24,0-4.25.73-27.55,1.94-50C106.48,42,108.3,42,110.41,42s3.93,0,6.35,45.07c1.21,22.46,1.94,45.76,1.94,50C118.7,145.41,115.79,154.29,110.41,154.29Zm0-105.1c-2.63,17.27-4.93,77.8-4.93,87.86,0,8.47,2.92,13.88,4.93,13.88s4.93-5.41,4.93-13.88C115.34,127,113,66.46,110.41,49.19Z"/><path class="cls-3" d="M117,137.05c0-8.59-3-93.4-6.61-93.4s-6.61,84.8-6.61,93.4,3,15.56,6.61,15.56S117,145.64,117,137.05Z"/><path class="cls-2" d="M110.41,154.29c-5.39,0-8.29-8.88-8.29-17.24,0-4.25.73-27.55,1.94-50C106.48,42,108.3,42,110.41,42s3.93,0,6.35,45.07c1.21,22.46,1.94,45.76,1.94,50C118.7,145.41,115.79,154.29,110.41,154.29Zm0-105.1c-2.63,17.27-4.93,77.8-4.93,87.86,0,8.47,2.92,13.88,4.93,13.88s4.93-5.41,4.93-13.88C115.34,127,113,66.46,110.41,49.19Z"/><path class="cls-3" d="M93.63,154.66c-7.44,4.3-79.4,49.26-77.58,52.42s76.75-36.68,84.19-41,12-10.34,10.17-13.5S101.07,150.37,93.63,154.66Z"/><path class="cls-4" d="M16.57,209h0a2.14,2.14,0,0,1-2-1c-1.05-1.83-2-3.41,35.85-28,18.85-12.28,38.66-24.56,42.34-26.68,4.58-2.64,9.33-4.16,13-4.16s5.31,1.48,6,2.72c1.24,2.15.63,5-1.72,8.18a30.64,30.64,0,0,1-9.06,7.62C97.66,169.54,24.56,209,16.57,209Zm0-3.37v0Zm89.27-53.17c-3.09,0-7.34,1.39-11.37,3.71-8.7,5-59.9,37.23-73.59,48.17,16.37-6.41,69.87-34.64,78.52-39.63a27.44,27.44,0,0,0,8.06-6.73c1.42-1.89,2-3.61,1.5-4.48C108.57,152.79,107.43,152.41,105.83,152.41Z"/><path class="cls-3" d="M93.63,154.66c-7.44,4.3-79.4,49.26-77.58,52.42s76.75-36.68,84.19-41,12-10.34,10.17-13.5S101.07,150.37,93.63,154.66Z"/><path class="cls-2" d="M16.57,209h0a2.14,2.14,0,0,1-2-1c-1.05-1.83-2-3.41,35.85-28,18.85-12.28,38.66-24.56,42.34-26.68,4.58-2.64,9.33-4.16,13-4.16s5.31,1.48,6,2.72c1.24,2.15.63,5-1.72,8.18a30.64,30.64,0,0,1-9.06,7.62C97.66,169.54,24.56,209,16.57,209Zm0-3.37v0Zm89.27-53.17c-3.09,0-7.34,1.39-11.37,3.71-8.7,5-59.9,37.23-73.59,48.17,16.37-6.41,69.87-34.64,78.52-39.63a27.44,27.44,0,0,0,8.06-6.73c1.42-1.89,2-3.61,1.5-4.48C108.57,152.79,107.43,152.41,105.83,152.41Z"/><path class="cls-3" d="M120.57,166.11c7.44,4.3,82.36,44.14,84.19,41S134.62,159,127.18,154.66s-15-5.22-16.78-2S113.13,161.82,120.57,166.11Z"/><path class="cls-4" d="M204.25,209h0c-8,0-81.09-39.4-84.51-41.38-7.24-4.18-13.48-11.14-10.78-15.8.72-1.24,2.34-2.72,6-2.72s8.47,1.52,13,4.16c3.68,2.12,23.49,14.41,42.34,26.68,37.82,24.63,36.91,26.21,35.85,28A2.16,2.16,0,0,1,204.25,209Zm0-3.37v0ZM115,152.41c-1.6,0-2.74.38-3.12,1-1,1.74,2.22,7,9.55,11.21,8.65,5,62.15,33.22,78.52,39.63-13.69-10.94-64.89-43.15-73.59-48.17C122.32,153.79,118.07,152.41,115,152.41Z"/><path class="cls-3" d="M120.57,166.11c7.44,4.3,82.36,44.14,84.19,41S134.62,159,127.18,154.66s-15-5.22-16.78-2S113.13,161.82,120.57,166.11Z"/><path class="cls-2" d="M204.25,209h0c-8,0-81.09-39.4-84.51-41.38-7.24-4.18-13.48-11.14-10.78-15.8.72-1.24,2.34-2.72,6-2.72s8.47,1.52,13,4.16c3.68,2.12,23.49,14.41,42.34,26.68,37.82,24.63,36.91,26.21,35.85,28A2.16,2.16,0,0,1,204.25,209Zm0-3.37v0ZM115,152.41c-1.6,0-2.74.38-3.12,1-1,1.74,2.22,7,9.55,11.21,8.65,5,62.15,33.22,78.52,39.63-13.69-10.94-64.89-43.15-73.59-48.17C122.32,153.79,118.07,152.41,115,152.41Z"/><polygon class="cls-3" points="110.41 152.61 96.7 352.62 124.11 352.62 110.41 152.61"/><path class="cls-2" d="M124.11,354.3H96.7A1.68,1.68,0,0,1,95,352.51l13.71-200a1.68,1.68,0,0,1,3.36,0l13.71,200a1.68,1.68,0,0,1-.45,1.26A1.76,1.76,0,0,1,124.11,354.3ZM98.5,350.94h23.81L110.4,177.19Z"/><circle class="cls-3" cx="110.41" cy="152.61" r="15.56"/><path class="cls-2" d="M110.41,169.85a17.24,17.24,0,1,1,17.24-17.24A17.25,17.25,0,0,1,110.41,169.85Zm0-31.12a13.88,13.88,0,1,0,13.88,13.88A13.9,13.9,0,0,0,110.41,138.73Z"/><path class="cls-3" d="M507.7,137.05c0-8.59-3-93.4-6.61-93.4s-6.61,84.8-6.61,93.4,3,15.56,6.61,15.56S507.7,145.64,507.7,137.05Z"/><path class="cls-4" d="M501.09,154.29c-5.38,0-8.29-8.88-8.29-17.24,0-4.25.73-27.55,1.94-50C497.16,42,499,42,501.09,42S505,42,507.44,87c1.21,22.46,1.94,45.76,1.94,50C509.38,145.41,506.47,154.29,501.09,154.29Zm0-105.1c-2.63,17.27-4.93,77.8-4.93,87.86,0,8.47,2.92,13.88,4.93,13.88s4.93-5.41,4.93-13.88C506,127,503.72,66.46,501.09,49.19Z"/><path class="cls-3" d="M507.7,137.05c0-8.59-3-93.4-6.61-93.4s-6.61,84.8-6.61,93.4,3,15.56,6.61,15.56S507.7,145.64,507.7,137.05Z"/><path class="cls-2" d="M501.09,154.29c-5.38,0-8.29-8.88-8.29-17.24,0-4.25.73-27.55,1.94-50C497.16,42,499,42,501.09,42S505,42,507.44,87c1.21,22.46,1.94,45.76,1.94,50C509.38,145.41,506.47,154.29,501.09,154.29Zm0-105.1c-2.63,17.27-4.93,77.8-4.93,87.86,0,8.47,2.92,13.88,4.93,13.88s4.93-5.41,4.93-13.88C506,127,503.72,66.46,501.09,49.19Z"/><path class="cls-3" d="M484.31,154.66c-7.44,4.3-79.4,49.26-77.58,52.42s76.75-36.68,84.19-41,12-10.34,10.17-13.5S491.75,150.37,484.31,154.66Z"/><path class="cls-4" d="M407.25,209h0a2.12,2.12,0,0,1-2-1c-1.06-1.83-2-3.41,35.85-28,18.86-12.28,38.67-24.56,42.34-26.68,4.58-2.64,9.33-4.16,13-4.16s5.31,1.48,6,2.72c1.24,2.15.63,5-1.72,8.18a30.64,30.64,0,0,1-9.06,7.62C488.34,169.54,415.24,209,407.25,209Zm0-3.37v0Zm89.27-53.17c-3.09,0-7.34,1.39-11.37,3.71-8.7,5-59.91,37.23-73.59,48.17,16.36-6.41,69.87-34.64,78.52-39.63a27.44,27.44,0,0,0,8.06-6.73c1.42-1.89,2-3.61,1.5-4.47C499.25,152.79,498.12,152.41,496.52,152.41Z"/><path class="cls-3" d="M485.47,156.18c-7.64,3.93-81.73,45.31-80.06,48.55s78.46-32.87,86.1-36.79,12.49-9.74,10.82-13S493.11,152.25,485.47,156.18Z"/><path class="cls-2" d="M405.84,206.61h0a2.13,2.13,0,0,1-1.92-1.11c-1-1.88-1.8-3.5,37.19-26.24,19.44-11.34,39.82-22.64,43.6-24.57,4.7-2.42,9.53-3.7,13.23-3.51s5.23,1.74,5.89,3c1.14,2.21.38,5.08-2.12,8.08a30.72,30.72,0,0,1-9.42,7.17C488.76,171.23,413.82,207,405.84,206.61Zm.16-3.36-.08,1.68.08-1.68Zm91.77-48.73c-3.09-.15-7.4,1-11.53,3.15-8.93,4.59-61.66,34.25-75.87,44.5,16.66-5.6,71.49-31.17,80.37-35.73a27.41,27.41,0,0,0,8.38-6.33c1.52-1.82,2.17-3.5,1.71-4.4C500.48,155,499.37,154.6,497.77,154.52Z"/><path class="cls-3" d="M511.26,166.11c7.44,4.3,82.36,44.14,84.19,41S525.31,159,517.87,154.66s-14.95-5.22-16.78-2S503.82,161.82,511.26,166.11Z"/><path class="cls-4" d="M594.93,209h0c-8,0-81.1-39.4-84.51-41.38-7.24-4.18-13.48-11.14-10.78-15.8.72-1.24,2.35-2.72,6-2.72s8.47,1.52,13.05,4.16c3.68,2.12,23.49,14.41,42.34,26.68,37.82,24.63,36.91,26.21,35.85,28A2.15,2.15,0,0,1,594.93,209Zm0-3.37v0Zm-89.27-53.17c-1.6,0-2.74.38-3.12,1-1,1.74,2.22,7,9.55,11.21,8.65,5,62.15,33.22,78.52,39.63-13.69-10.94-64.89-43.15-73.59-48.17C513,153.79,508.76,152.41,505.66,152.41Z"/><path class="cls-3" d="M511.26,166.11c7.44,4.3,82.36,44.14,84.19,41S525.31,159,517.87,154.66s-14.95-5.22-16.78-2S503.82,161.82,511.26,166.11Z"/><path class="cls-2" d="M594.93,209h0c-8,0-81.1-39.4-84.51-41.38-7.24-4.18-13.48-11.14-10.78-15.8.72-1.24,2.35-2.72,6-2.72s8.47,1.52,13.05,4.16c3.68,2.12,23.49,14.41,42.34,26.68,37.82,24.63,36.91,26.21,35.85,28A2.15,2.15,0,0,1,594.93,209Zm0-3.37v0Zm-89.27-53.17c-1.6,0-2.74.38-3.12,1-1,1.74,2.22,7,9.55,11.21,8.65,5,62.15,33.22,78.52,39.63-13.69-10.94-64.89-43.15-73.59-48.17C513,153.79,508.76,152.41,505.66,152.41Z"/><polygon class="cls-3" points="501.09 152.61 487.38 352.62 514.8 352.62 501.09 152.61"/><path class="cls-2" d="M514.8,354.3H487.39a1.68,1.68,0,0,1-1.68-1.79l13.71-200a1.68,1.68,0,0,1,3.36,0l13.71,200a1.68,1.68,0,0,1-.45,1.26A1.78,1.78,0,0,1,514.8,354.3Zm-25.62-3.36H513L501.08,177.19Z"/><circle class="cls-3" cx="501.09" cy="152.61" r="15.56"/><path class="cls-2" d="M501.09,169.85a17.24,17.24,0,1,1,17.24-17.24A17.26,17.26,0,0,1,501.09,169.85Zm0-31.12A13.88,13.88,0,1,0,515,152.61,13.9,13.9,0,0,0,501.09,138.73Z"/><polygon class="cls-1" points="118.12 387.27 96.67 454.28 241.25 454.28 219.8 387.27 118.12 387.27"/><path class="cls-2" d="M241.25,456H96.67a1.7,1.7,0,0,1-1.36-.69,1.64,1.64,0,0,1-.24-1.5l21.45-67a1.67,1.67,0,0,1,1.6-1.17H219.8a1.67,1.67,0,0,1,1.6,1.17l21.45,67a1.68,1.68,0,0,1-1.6,2.19ZM99,452.6H239L218.57,389H119.35Z"/><path class="cls-2" d="M169,482.85a1.68,1.68,0,0,1-1.68-1.68v-93.9a1.68,1.68,0,1,1,3.36,0v93.9A1.68,1.68,0,0,1,169,482.85Z"/><path class="cls-2" d="M205.1,456a1.68,1.68,0,0,1-1.66-1.41l-10.73-67A1.68,1.68,0,1,1,196,387l10.73,67a1.68,1.68,0,0,1-1.39,1.93Z"/><path class="cls-2" d="M132.82,456l-.27,0a1.68,1.68,0,0,1-1.39-1.93l10.73-67a1.68,1.68,0,1,1,3.32.54l-10.73,67A1.69,1.69,0,0,1,132.82,456Z"/><path class="cls-2" d="M225.27,406H112.65a1.68,1.68,0,0,1,0-3.36H225.27a1.68,1.68,0,0,1,0,3.36Z"/><path class="cls-2" d="M232.48,428.55h-127a1.68,1.68,0,1,1,0-3.36h127a1.68,1.68,0,0,1,0,3.36Z"/><path class="cls-2" d="M169,378.24a1.68,1.68,0,0,1-1.68-1.68V361.43a1.68,1.68,0,1,1,3.36,0v15.13A1.68,1.68,0,0,1,169,378.24Zm57.2,5.17,10.7-10.69a1.68,1.68,0,1,0-2.38-2.38L223.78,381a1.68,1.68,0,0,0,2.38,2.38Zm28.52,31.21a1.68,1.68,0,0,0-1.68-1.68H237.88a1.68,1.68,0,0,0,0,3.36H253A1.68,1.68,0,0,0,254.68,414.62ZM114.15,383.41a1.68,1.68,0,0,0,0-2.38l-10.7-10.69a1.68,1.68,0,1,0-2.38,2.38l10.7,10.69a1.69,1.69,0,0,0,2.38,0Zm-12.42,31.21a1.68,1.68,0,0,0-1.68-1.68H84.93a1.68,1.68,0,0,0,0,3.36h15.12A1.68,1.68,0,0,0,101.73,414.62Z"/><path class="cls-2" d="M176.81,482.85h-15.7a1.68,1.68,0,1,1,0-3.36h15.7a1.68,1.68,0,0,1,0,3.36Z"/><path class="cls-2" d="M310.82,394a1.68,1.68,0,0,1-1.4-.75l-6.72-10.09a1.68,1.68,0,0,1,2.8-1.86l5.32,8,5.32-8a1.68,1.68,0,1,1,2.8,1.86l-6.72,10.09A1.69,1.69,0,0,1,310.82,394ZM240,500.11,246.68,490a1.68,1.68,0,1,0-2.8-1.86l-5.32,8-5.32-8a1.68,1.68,0,1,0-2.8,1.86l6.72,10.09a1.68,1.68,0,0,0,2.8,0ZM55,483.3l6.72-10.09a1.68,1.68,0,1,0-2.8-1.86l-5.32,8-5.32-8a1.68,1.68,0,0,0-2.8,1.86l6.72,10.09a1.68,1.68,0,0,0,2.8,0Zm495.88,15.13,6.72-10.09a1.68,1.68,0,1,0-2.8-1.86l-5.32,8-5.32-8a1.68,1.68,0,0,0-2.8,1.86l6.72,10.09a1.68,1.68,0,0,0,2.8,0Z"/><path class="cls-2" d="M800.82,319a1.68,1.68,0,0,1-1.4-.75l-6.72-10.09a1.68,1.68,0,0,1,2.8-1.86l5.32,8,5.32-8a1.68,1.68,0,1,1,2.8,1.86l-6.72,10.09A1.69,1.69,0,0,1,800.82,319Z"/><path class="cls-2" d="M545,408.3l6.72-10.09a1.68,1.68,0,1,0-2.8-1.86l-5.32,8-5.32-8a1.68,1.68,0,0,0-2.8,1.86l6.72,10.09a1.68,1.68,0,0,0,2.8,0Z"/><polygon class="cls-1" points="363.12 427.27 341.67 494.28 486.25 494.28 464.8 427.27 363.12 427.27"/><path class="cls-2" d="M486.25,496H341.67a1.7,1.7,0,0,1-1.36-.69,1.64,1.64,0,0,1-.24-1.5l21.45-67a1.67,1.67,0,0,1,1.6-1.17H464.8a1.67,1.67,0,0,1,1.6,1.17l21.45,67a1.68,1.68,0,0,1-1.6,2.19ZM344,492.6H484L463.57,429H364.35Z"/><path class="cls-2" d="M414,522.85a1.68,1.68,0,0,1-1.68-1.68v-93.9a1.68,1.68,0,1,1,3.36,0v93.9A1.68,1.68,0,0,1,414,522.85Z"/><path class="cls-2" d="M450.1,496a1.68,1.68,0,0,1-1.66-1.41l-10.73-67A1.68,1.68,0,0,1,441,427l10.73,67a1.68,1.68,0,0,1-1.39,1.93Z"/><path class="cls-2" d="M377.82,496l-.27,0a1.68,1.68,0,0,1-1.39-1.93l10.73-67a1.68,1.68,0,0,1,3.32.54l-10.73,67A1.69,1.69,0,0,1,377.82,496Z"/><path class="cls-2" d="M470.27,446H357.65a1.68,1.68,0,1,1,0-3.36H470.27a1.68,1.68,0,0,1,0,3.36Z"/><path class="cls-2" d="M477.48,468.55h-127a1.68,1.68,0,0,1,0-3.36h127a1.68,1.68,0,0,1,0,3.36Z"/><path class="cls-2" d="M414,418.24a1.68,1.68,0,0,1-1.68-1.68V401.43a1.68,1.68,0,0,1,3.36,0v15.13A1.68,1.68,0,0,1,414,418.24Zm57.2,5.17,10.7-10.69a1.68,1.68,0,1,0-2.38-2.38L468.78,421a1.68,1.68,0,0,0,2.38,2.38Zm28.52,31.21a1.68,1.68,0,0,0-1.68-1.68H482.88a1.68,1.68,0,0,0,0,3.36H498A1.68,1.68,0,0,0,499.68,454.62ZM359.15,423.41a1.68,1.68,0,0,0,0-2.38l-10.7-10.69a1.68,1.68,0,1,0-2.38,2.38l10.7,10.69a1.69,1.69,0,0,0,2.38,0Zm-12.42,31.21a1.68,1.68,0,0,0-1.68-1.68H329.93a1.68,1.68,0,0,0,0,3.36h15.12A1.68,1.68,0,0,0,346.73,454.62Z"/><path class="cls-2" d="M421.81,522.85h-15.7a1.68,1.68,0,1,1,0-3.36h15.7a1.68,1.68,0,1,1,0,3.36Z"/></g></g></svg>