<?xml version="1.0" standalone="no"?>
<!DOCTYPE svg PUBLIC "-//W3C//DTD SVG 20010904//EN"
 "http://www.w3.org/TR/2001/REC-SVG-20010904/DTD/svg10.dtd">
<svg version="1.0" xmlns="http://www.w3.org/2000/svg"
 width="512.000000pt" height="512.000000pt" viewBox="0 0 512.000000 512.000000"
 preserveAspectRatio="xMidYMid meet">

<g transform="translate(0.000000,512.000000) scale(0.100000,-0.100000)"
fill="color" stroke="none">
<path d="M1141 5105 c-178 -39 -348 -172 -429 -336 -77 -156 -73 -61 -69
-1642 3 -1400 3 -1413 24 -1527 78 -413 254 -750 538 -1035 285 -285 624 -461
1035 -537 110 -21 148 -22 886 -25 869 -4 852 -6 1003 69 210 103 351 332 351
568 0 236 -141 465 -351 568 -146 72 -137 72 -929 72 -792 0 -783 0 -929 72
-119 59 -220 160 -279 279 -60 121 -72 188 -72 417 l0 192 993 0 c1111 0 1066
-2 1216 72 210 103 351 332 351 568 0 236 -141 465 -351 568 -150 74 -105 72
-1216 72 l-993 0 0 513 c0 579 -2 594 -72 736 -126 256 -423 397 -707 336z"/>
</g>
</svg>
