<svg xmlns="http://www.w3.org/2000/svg" viewBox="0 0 27.28 27.28"><defs><style>.cls-1{fill:#0f131b;}</style></defs><g id="Capa_2" data-name="Capa 2"><g id="Capa_1-2" data-name="Capa 1"><path class="cls-1" d="M13.64,0A13.64,13.64,0,1,0,27.28,13.64,13.64,13.64,0,0,0,13.64,0Zm0,4.08A4.51,4.51,0,1,1,9.13,8.59,4.51,4.51,0,0,1,13.64,4.08Zm0,19.63a10.06,10.06,0,0,1-6.52-2.4,1.9,1.9,0,0,1-.67-1.46A4.55,4.55,0,0,1,11,15.3h5.25a4.54,4.54,0,0,1,4.56,4.55,1.94,1.94,0,0,1-.67,1.46A10,10,0,0,1,13.63,23.71Z"/></g></g></svg>