<?xml version="1.0" standalone="no"?>
<!DOCTYPE svg PUBLIC "-//W3C//DTD SVG 20010904//EN"
 "http://www.w3.org/TR/2001/REC-SVG-20010904/DTD/svg10.dtd">
<svg version="1.0" xmlns="http://www.w3.org/2000/svg"
 width="512.000000pt" height="512.000000pt" viewBox="0 0 512.000000 512.000000"
 preserveAspectRatio="xMidYMid meet">

<g transform="translate(0.000000,512.000000) scale(0.100000,-0.100000)"
fill="color" stroke="none">
<path d="M640 4265 l0 -215 1920 0 1920 0 0 215 0 215 -1920 0 -1920 0 0 -215z"/>
<path d="M640 2560 l0 -210 1920 0 1920 0 0 210 0 210 -1920 0 -1920 0 0 -210z"/>
<path d="M2137 1063 c-4 -3 -7 -100 -7 -215 l0 -208 1175 0 1175 0 0 215 0
215 -1168 0 c-643 0 -1172 -3 -1175 -7z"/>
</g>
</svg>
